<?xml version="1.0" encoding="utf-8"?>
<!-- Generator: Adobe Illustrator 16.0.0, SVG Export Plug-In . SVG Version: 6.00 Build 0)  -->
<!DOCTYPE svg PUBLIC "-//W3C//DTD SVG 1.1//EN" "http://www.w3.org/Graphics/SVG/1.1/DTD/svg11.dtd">
<svg version="1.1" id="Capa_1" xmlns="http://www.w3.org/2000/svg" xmlns:xlink="http://www.w3.org/1999/xlink" x="0px" y="0px"
	 width="438.895px" height="336.526px" viewBox="0 0 438.895 336.526" enable-background="new 0 0 438.895 336.526"
	 xml:space="preserve">
<path fill="#070707" d="M424,94c0,5.523-4.478,10-10,10H26c-5.523,0-10-4.477-10-10V24c0-5.523,4.477-10,10-10h388
	c5.522,0,10,4.477,10,10V94z"/>
<path fill="#FFFFFF" d="M425,305c0,5.523-4.488,10-10.024,10H25.024C19.488,315,15,310.523,15,305V41c0-5.523,4.488-10,10.024-10
	h389.951C420.512,31,425,35.477,425,41V305z"/>
<path fill="#D3D3D3" d="M425,60V42.055C425,35.628,420.308,31,413.881,31H27.218C20.792,31,15,35.628,15,42.055V60H425z"/>
<path fill="#F8F8F8" d="M328,52c0,1.657-1.343,3-3,3H150c-1.657,0-3-1.343-3-3V39c0-1.657,1.343-3,3-3h175c1.657,0,3,1.343,3,3V52z"
	/>
<path fill="#F8F8F8" d="M407,52c0,1.657-1.344,3-3,3h-64c-1.656,0-3-1.343-3-3V39c0-1.657,1.344-3,3-3h64c1.656,0,3,1.343,3,3V52z"
	/>
<path fill="#CAC9C9" d="M66,52c0,1.657-1.344,3-3,3H29c-1.657,0-3-1.343-3-3V39c0-1.657,1.343-3,3-3h34c1.656,0,3,1.343,3,3V52z"/>
<path fill="#CAC9C9" d="M111,51.667c0,1.657-1.344,3-3,3H74c-1.657,0-3-1.343-3-3v-13c0-1.657,1.343-3,3-3h34c1.656,0,3,1.343,3,3
	V51.667z"/>
<path fill="#C3C7CC" d="M60,23c0,1.657-1.343,3-3,3H38c-1.657,0-3-1.343-3-3v-2c0-1.657,1.343-3,3-3h19c1.657,0,3,1.343,3,3V23z"/>
<text transform="matrix(1 0 0 1 155 49.333)"><tspan x="0" y="0" fill="#5B5B5B" font-family="'MyriadPro-Regular'" font-size="11">http://project.acamica.com/aweso..</tspan><tspan x="161.95" y="0" fill="#5B5B5B" font-family="'MyriadPro-Regular'" font-size="11">.</tspan></text>
<g>
	<g>
		<path fill="#BB572E" d="M174.404,235.867c1.292,6.766,3.107,12.958,5.232,17.224h0.001c2.125-4.266,3.94-10.458,5.232-17.224
			H174.404z"/>
		<path fill="#EAE3C5" d="M175.614,236.71c0.728,3.813,1.75,7.302,2.948,9.704h0.001c1.197-2.401,2.22-5.891,2.948-9.704H175.614z"
			/>
	</g>
	<g>
		<path fill="#BB572E" d="M240.769,248.365c-3.27,17.123-7.864,32.793-13.241,43.586h-0.003
			c-5.378-10.793-9.972-26.463-13.242-43.586H240.769z"/>
		<path fill="#EAE3C5" d="M234.986,250.498c-1.841,9.649-4.429,18.479-7.459,24.557h-0.002c-3.03-6.078-5.618-14.908-7.46-24.557
			H234.986z"/>
	</g>
	<path fill="#BB572E" d="M232.39,250.498c-1.201,6.288-2.888,12.042-4.863,16.006h-0.001c-1.975-3.964-3.662-9.718-4.863-16.006
		H232.39z"/>
	<g>
		<path fill="#802B25" d="M227.525,246.04c-9.494,0-17.189-3.376-17.189-7.542v8.188c0,4.165,7.696,7.542,17.189,7.542
			s17.19-3.377,17.19-7.542v-8.188C244.715,242.663,237.019,246.04,227.525,246.04z"/>
		<g>
			<g>
				<g>
					<path fill="#B73B2C" d="M277.692,215.807l-31.514-23.615l-4.376,22.875c0,0,11.904-1.359,25.41,9.399
						c3.903,3.11,6.029,7.559,6.029,7.559L277.692,215.807z"/>
					<g>
						<g>
							<path fill="#BB572E" d="M275.205,199.843L275.205,199.843c3.874,5.727,6.611,16.672,6.611,25.444
								c0,9.821-0.116,13.167-6.61,13.282h-0.001c-6.494-0.116-6.609-3.461-6.609-13.282
								C268.595,216.515,271.333,205.569,275.205,199.843z"/>
							<path fill="#B73B2C" d="M271.802,206.942c0.973-2.757,2.126-5.212,3.402-7.1h0.001c1.277,1.888,2.429,4.342,3.402,7.1
								H271.802z"/>
							<path fill="#802B25" d="M281.355,234.188c-0.659,3.083-2.26,4.312-6.149,4.381h-0.001c-3.889-0.069-5.49-1.298-6.149-4.381
								H281.355z"/>
						</g>
					</g>
				</g>
				<g>
					<path fill="#B73B2C" d="M177.308,215.807l31.514-23.615l4.375,22.875c0,0-11.903-1.359-25.41,9.399
						c-3.903,3.11-6.03,7.559-6.03,7.559L177.308,215.807z"/>
					<g>
						<g>
							<path fill="#BB572E" d="M179.796,199.843h-0.002c-3.872,5.727-6.61,16.672-6.61,25.444c0,9.821,0.116,13.167,6.61,13.282
								h0.002c6.494-0.116,6.609-3.461,6.609-13.282C186.405,216.515,183.667,205.569,179.796,199.843z"/>
							<path fill="#B73B2C" d="M183.198,206.942c-0.973-2.757-2.126-5.212-3.401-7.1h-0.002c-1.276,1.888-2.429,4.342-3.402,7.1
								H183.198z"/>
							<path fill="#802B25" d="M173.645,234.188c0.659,3.083,2.26,4.312,6.149,4.381h0.002c3.888-0.069,5.49-1.298,6.148-4.381
								H173.645z"/>
						</g>
					</g>
				</g>
			</g>
			<path fill="#802B25" d="M254.149,198.164l-7.97-5.973l-4.376,22.875c0,0,4.35-0.492,10.77,1.488
				C253.694,211.783,254.042,205.727,254.149,198.164z"/>
			<path fill="#802B25" d="M200.447,198.468c0.112,7.485,0.473,13.479,1.601,18.206c6.627-2.12,11.149-1.608,11.149-1.608
				l-4.375-22.875L200.447,198.468z"/>
		</g>
		<path fill="#EAE3C5" d="M227.528,106.472h-0.004c-12.533,20.844-21.396,60.697-21.396,92.636c0,35.756,0.375,47.938,21.396,48.357
			h0.004c21.021-0.42,21.396-12.602,21.396-48.357C248.924,167.169,240.061,127.315,227.528,106.472z"/>
		<path fill="#BB572E" d="M206.132,204.092c0.079,31.912,1.378,42.973,21.392,43.373h0.004
			c20.013-0.399,21.313-11.461,21.391-43.373H206.132z"/>
		<g>
			<circle fill="#802B25" cx="227.526" cy="176.968" r="12.326"/>
			<circle fill="#BB572E" cx="227.526" cy="176.968" r="9.298"/>
			<path fill="#EAE3C5" d="M226.208,171.96c4.738,0,8.582,3.842,8.582,8.582c0,0.143-0.004,0.285-0.012,0.426
				c0.615-1.149,0.965-2.462,0.965-3.858c0-4.529-3.672-8.2-8.201-8.2c-3.825,0-7.037,2.618-7.943,6.16
				C221.173,173.17,223.549,171.96,226.208,171.96z"/>
		</g>
		<path fill="#BB572E" d="M238.539,132.318c-3.148-10.038-6.88-18.976-11.011-25.847h-0.004
			c-4.132,6.871-7.864,15.809-11.012,25.847H238.539z"/>
		<path fill="#CC6A47" d="M227.256,112.622h0.005c3.533,4.386,6.849,9.617,9.882,15.438c-2.836-8.305-6.079-15.706-9.615-21.587
			h-0.004c-3.128,5.202-6.027,11.59-8.617,18.742C221.515,120.528,224.308,116.28,227.256,112.622z"/>
		<path fill="#B73B2C" d="M207.618,231.517c2.134,11.225,7.316,15.697,19.906,15.948h0.004c12.588-0.251,17.771-4.723,19.905-15.948
			H207.618z"/>
	</g>
</g>
</svg>
