<?xml version="1.0" encoding="utf-8"?>
<!-- Generator: Adobe Illustrator 16.0.0, SVG Export Plug-In . SVG Version: 6.00 Build 0)  -->
<!DOCTYPE svg PUBLIC "-//W3C//DTD SVG 1.1//EN" "http://www.w3.org/Graphics/SVG/1.1/DTD/svg11.dtd">
<svg version="1.1" id="Capa_1" xmlns="http://www.w3.org/2000/svg" xmlns:xlink="http://www.w3.org/1999/xlink" x="0px" y="0px"
	 width="442px" height="339px" viewBox="0 0 442 339" enable-background="new 0 0 442 339" xml:space="preserve">
<path fill="#070707" d="M426,96c0,5.523-4.479,10-10,10H28c-5.523,0-10-4.477-10-10V26c0-5.523,4.477-10,10-10h388
	c5.521,0,10,4.477,10,10V96z"/>
<path fill="#FFFFFF" d="M427,307c0,5.523-4.488,10-10.024,10H27.024C21.488,317,17,312.523,17,307V43c0-5.523,4.488-10,10.024-10
	h389.951C422.512,33,427,37.477,427,43V307z"/>
<rect x="39" y="281" fill="#BA5A5A" width="103" height="36"/>
<rect x="172" y="281" fill="#BA5A5A" width="103" height="36"/>
<rect x="306" y="281" fill="#BA5A5A" width="103" height="36"/>
<path fill="#D3D3D3" d="M427,62V44.055C427,37.628,422.308,33,415.881,33H29.218C22.792,33,17,37.628,17,44.055V62H427z"/>
<path fill="#4FA6DB" d="M134,152c0,1.657-1.343,3-3,3H53c-1.657,0-3-1.343-3-3v-8c0-1.657,1.343-3,3-3h78c1.657,0,3,1.343,3,3V152z"
	/>
<path fill="#4FA6DB" d="M266,152c0,1.657-1.343,3-3,3h-78c-1.657,0-3-1.343-3-3v-8c0-1.657,1.343-3,3-3h78c1.657,0,3,1.343,3,3V152z
	"/>
<path fill="#4FA6DB" d="M394,152c0,1.657-1.343,3-3,3h-78c-1.657,0-3-1.343-3-3v-8c0-1.657,1.343-3,3-3h78c1.657,0,3,1.343,3,3V152z
	"/>
<rect x="18" y="169.75" fill="#35C2AF" width="408" height="84.312"/>
<path fill="#F9F9F9" d="M306,203c0,1.656-1.344,3-3,3H145c-1.657,0-3-1.344-3-3v-17c0-1.656,1.343-3,3-3h158c1.656,0,3,1.344,3,3
	V203z"/>
<path fill="#F9F9F9" d="M323,225c0,1.656-1.344,3-3,3H128c-1.657,0-3-1.344-3-3v-3c0-1.656,1.343-3,3-3h192c1.656,0,3,1.344,3,3V225
	z"/>
<path fill="#F9F9F9" d="M323,240c0,1.656-1.344,3-3,3H128c-1.657,0-3-1.344-3-3v-3c0-1.656,1.343-3,3-3h192c1.656,0,3,1.344,3,3V240
	z"/>
<path fill="#F8F8F8" d="M330,54c0,1.657-1.343,3-3,3H152c-1.657,0-3-1.343-3-3V41c0-1.657,1.343-3,3-3h175c1.657,0,3,1.343,3,3V54z"
	/>
<path fill="#F8F8F8" d="M409,54c0,1.657-1.344,3-3,3h-64c-1.656,0-3-1.343-3-3V41c0-1.657,1.344-3,3-3h64c1.656,0,3,1.343,3,3V54z"
	/>
<path fill="#CAC9C9" d="M68,54c0,1.657-1.344,3-3,3H31c-1.657,0-3-1.343-3-3V41c0-1.657,1.343-3,3-3h34c1.656,0,3,1.343,3,3V54z"/>
<path fill="#CAC9C9" d="M113,53.667c0,1.657-1.344,3-3,3H76c-1.657,0-3-1.343-3-3v-13c0-1.657,1.343-3,3-3h34c1.656,0,3,1.343,3,3
	V53.667z"/>
<path fill="#C3C7CC" d="M62,25c0,1.657-1.343,3-3,3H40c-1.657,0-3-1.343-3-3v-2c0-1.657,1.343-3,3-3h19c1.657,0,3,1.343,3,3V25z"/>
<g>
	<ellipse fill="#796034" cx="223.626" cy="125.53" rx="7.403" ry="2.864"/>
	<ellipse fill="#796034" cx="240.859" cy="121.817" rx="2.969" ry="1.149"/>
	<ellipse fill="#796034" cx="206.224" cy="121.817" rx="2.969" ry="1.149"/>
	<path fill="#802B25" d="M223.636,124.771c-3.463,0-6.271-1.231-6.271-2.75v2.987c0,1.519,2.808,2.751,6.271,2.751
		c3.464,0,6.271-1.232,6.271-2.751v-2.987C229.906,123.539,227.1,124.771,223.636,124.771z"/>
	<g>
		<g>
			<g>
				<path fill="#B73B2C" d="M241.938,113.742l-11.496-8.615l-1.598,8.345c0,0,4.344-0.496,9.271,3.429
					c1.425,1.135,2.2,2.757,2.2,2.757L241.938,113.742z"/>
				<g>
					<g>
						<path fill="#BB572E" d="M241.029,107.918L241.029,107.918c1.412,2.088,2.412,6.082,2.412,9.282
							c0,3.583-0.043,4.803-2.412,4.845l0,0c-2.368-0.042-2.411-1.263-2.411-4.845C238.618,114,239.616,110.006,241.029,107.918z"/>
						<path fill="#B73B2C" d="M239.788,110.508c0.354-1.006,0.774-1.901,1.241-2.59l0,0c0.466,0.689,0.887,1.584,1.242,2.59H239.788
							z"/>
						<path fill="#802B25" d="M243.273,120.447c-0.24,1.125-0.825,1.573-2.244,1.598l0,0c-1.42-0.025-2.004-0.474-2.243-1.598
							H243.273z"/>
					</g>
				</g>
			</g>
			<g>
				<path fill="#B73B2C" d="M205.316,113.742l11.496-8.615l1.597,8.345c0,0-4.342-0.496-9.27,3.429
					c-1.424,1.135-2.2,2.757-2.2,2.757L205.316,113.742z"/>
				<g>
					<g>
						<path fill="#BB572E" d="M206.224,107.918L206.224,107.918c-1.413,2.088-2.412,6.082-2.412,9.282
							c0,3.583,0.042,4.803,2.412,4.845l0,0c2.369-0.042,2.411-1.263,2.411-4.845C208.635,114,207.636,110.006,206.224,107.918z"/>
						<path fill="#B73B2C" d="M207.465,110.508c-0.354-1.006-0.775-1.901-1.241-2.59l0,0c-0.466,0.689-0.887,1.584-1.242,2.59
							H207.465z"/>
						<path fill="#802B25" d="M203.98,120.447c0.24,1.125,0.825,1.573,2.244,1.598l0,0c1.418-0.025,2.002-0.474,2.243-1.598H203.98z
							"/>
					</g>
				</g>
			</g>
		</g>
		<path fill="#802B25" d="M233.35,107.306l-2.908-2.179l-1.598,8.345c0,0,1.588-0.179,3.93,0.543
			C233.182,112.273,233.311,110.064,233.35,107.306z"/>
		<path fill="#802B25" d="M213.757,107.416c0.041,2.731,0.172,4.918,0.584,6.642c2.418-0.773,4.068-0.587,4.068-0.587l-1.597-8.345
			L213.757,107.416z"/>
	</g>
	<path fill="#EAE3C5" d="M223.637,73.855h-0.002c-4.572,7.604-7.805,22.143-7.805,33.794c0,13.044,0.136,17.488,7.805,17.642h0.002
		c7.67-0.154,7.805-4.598,7.805-17.642C231.441,95.999,228.209,81.459,223.637,73.855z"/>
	<path fill="#BB572E" d="M215.831,109.468c0.029,11.641,0.503,15.677,7.804,15.823h0.002c7.303-0.146,7.774-4.182,7.803-15.823
		H215.831z"/>
	<g>
		<circle fill="#802B25" cx="223.636" cy="99.573" r="4.497"/>
		<circle fill="#BB572E" cx="223.636" cy="99.573" r="3.392"/>
		<path fill="#EAE3C5" d="M223.156,97.747c1.729,0,3.13,1.402,3.13,3.13c0,0.052-0.002,0.104-0.005,0.155
			c0.225-0.419,0.352-0.898,0.352-1.407c0-1.652-1.338-2.992-2.99-2.992c-1.396,0-2.566,0.955-2.897,2.247
			C221.318,98.188,222.186,97.747,223.156,97.747z"/>
	</g>
	<path fill="#BB572E" d="M227.654,83.284c-1.148-3.662-2.512-6.922-4.019-9.429h-0.002c-1.507,2.507-2.869,5.767-4.017,9.429
		H227.654z"/>
	<path fill="#CC6A47" d="M223.537,76.099h0.002c1.29,1.6,2.499,3.508,3.605,5.632c-1.035-3.03-2.22-5.729-3.509-7.875h-0.002
		c-1.141,1.898-2.198,4.229-3.143,6.837C221.443,78.983,222.462,77.434,223.537,76.099z"/>
	<path fill="#B73B2C" d="M216.374,119.473c0.778,4.095,2.669,5.727,7.261,5.818h0.002c4.592-0.092,6.482-1.723,7.262-5.818H216.374z
		"/>
</g>
<text transform="matrix(1 0 0 1 157 51.333)" fill="#5B5B5B" font-family="'MyriadPro-Regular'" font-size="11">http://project.acamica.com/aweso..</text>
<text transform="matrix(1 0 0 1 318.9502 51.333)" fill="#5B5B5B" font-family="'MyriadPro-Regular'" font-size="11">.</text>
</svg>
