<?xml version="1.0" encoding="utf-8"?>
<!-- Generator: Adobe Illustrator 16.0.0, SVG Export Plug-In . SVG Version: 6.00 Build 0)  -->
<!DOCTYPE svg PUBLIC "-//W3C//DTD SVG 1.1//EN" "http://www.w3.org/Graphics/SVG/1.1/DTD/svg11.dtd">
<svg version="1.1" id="Capa_1" xmlns="http://www.w3.org/2000/svg" xmlns:xlink="http://www.w3.org/1999/xlink" x="0px" y="0px"
	 width="544.094px" height="391.091px" viewBox="0 0 544.094 391.091" enable-background="new 0 0 544.094 391.091"
	 xml:space="preserve">
<path fill="#070707" d="M528,363.03c0,6.949-5.313,12.97-12.278,12.97H27.612C20.647,376,15,369.979,15,363.03V31h513V363.03z"/>
<path fill="#F9F9F9" d="M398.742,259.859c0,2.084-1.69,3.775-3.774,3.775H153.399c-2.084,0-3.774-1.691-3.774-3.775v-3.774
	c0-2.084,1.69-3.774,3.774-3.774h241.569c2.084,0,3.774,1.69,3.774,3.774V259.859z"/>
<path fill="#F9F9F9" d="M398.742,278.732c0,2.084-1.69,3.774-3.774,3.774H153.399c-2.084,0-3.774-1.69-3.774-3.774v-3.774
	c0-2.084,1.69-3.774,3.774-3.774h241.569c2.084,0,3.774,1.69,3.774,3.774V278.732z"/>
<path fill="#7F7F7F" d="M528,31v-6.418C528,17.633,522.7,12,515.752,12H27.582C20.633,12,15,17.633,15,24.582V31H528z"/>
<path fill="#424242" d="M248,55V40.938c0-2.084-1.929-3.938-4.013-3.938h-95.621c-2.084,0-3.366,1.854-3.366,3.938V55H248z"/>
<path fill="#282828" d="M353,54V40.938c0-2.084-1.242-3.938-3.326-3.938h-95.621c-2.085,0-4.053,1.854-4.053,3.938V54H353z"/>
<path fill="#282828" d="M459,54V40.938c0-2.084-1.556-3.938-3.64-3.938h-95.621c-2.084,0-3.739,1.854-3.739,3.938V54H459z"/>
<path fill="#424242" d="M145,54v322h370.722c6.965,0,12.278-5.98,12.278-12.879V58.516c0-1.778-0.033-3.516-0.688-4.516H145z"/>
<circle fill="#424242" cx="35.131" cy="22.275" r="3.146"/>
<circle fill="#424242" cx="48.342" cy="22.694" r="3.146"/>
<circle fill="#424242" cx="61.552" cy="22.694" r="3.146"/>
<rect x="154" y="71" fill="#A3A3A3" width="139" height="6"/>
<rect x="154" y="97" fill="#89521A" width="72" height="6"/>
<rect x="164" y="108" fill="#664120" width="96" height="6"/>
<rect x="164" y="119" fill="#664120" width="96" height="6"/>
<rect x="164" y="156" fill="#664120" width="75" height="6"/>
<rect x="165" y="167" fill="#664120" width="74" height="6"/>
<rect x="164" y="179" fill="#664120" width="53" height="6"/>
<rect x="164" y="190" fill="#664120" width="75" height="6"/>
<rect x="164" y="201" fill="#664120" width="74" height="6"/>
<rect x="156" y="144" fill="#89521A" width="72" height="6"/>
<rect x="154" y="250" fill="#A3A3A3" width="139" height="6"/>
<rect x="154" y="276" fill="#89521A" width="72" height="6"/>
<rect x="164" y="287" fill="#664120" width="96" height="6"/>
<rect x="164" y="298" fill="#664120" width="96" height="6"/>
<rect x="154" y="41" fill="#A3A3A3" width="53" height="10"/>
<rect x="255" y="40" opacity="0.4" fill="#A3A3A3" width="53" height="10"/>
<rect x="362" y="40" opacity="0.4" fill="#A3A3A3" width="53" height="10"/>
<rect x="24" y="50" fill="#A3A3A3" width="72" height="9"/>
<rect x="24" y="66" fill="#A3A3A3" width="72" height="9"/>
<rect x="35" y="84" fill="#A3A3A3" width="87" height="7"/>
<rect x="35" y="96" fill="#A3A3A3" width="87" height="7"/>
<rect x="35" y="108" fill="#A3A3A3" width="87" height="7"/>
<rect x="35" y="120" fill="#A3A3A3" width="87" height="7"/>
<rect x="24" y="145" fill="#A3A3A3" width="72" height="9"/>
</svg>
