<?xml version="1.0" encoding="utf-8"?>
<!-- Generator: Adobe Illustrator 16.0.0, SVG Export Plug-In . SVG Version: 6.00 Build 0)  -->
<!DOCTYPE svg PUBLIC "-//W3C//DTD SVG 1.1//EN" "http://www.w3.org/Graphics/SVG/1.1/DTD/svg11.dtd">
<svg version="1.1" id="Capa_1" xmlns="http://www.w3.org/2000/svg" xmlns:xlink="http://www.w3.org/1999/xlink" x="0px" y="0px"
	 width="385px" height="60.368px" viewBox="0 0 385 60.368" enable-background="new 0 0 385 60.368" xml:space="preserve">
<g>
	<path fill="#FFFFFF" d="M55.058,41.805V27.643V0.17H44.721v5.925C39.983,2.285,33.966,0,27.414,0C12.146,0-0.23,12.377-0.23,27.643
		c0,15.268,12.376,27.645,27.644,27.645c6.553,0,12.57-2.285,17.308-6.096v6.328H55.02c0.013,0,0.024,0.003,0.039,0.003
		c3.785,0,6.856-3.072,6.856-6.858C61.915,44.876,58.843,41.805,55.058,41.805z M27.414,46.211
		c-10.255,0-18.567-8.312-18.567-18.569c0-10.254,8.312-18.567,18.567-18.567c10.254,0,18.567,8.313,18.567,18.567
		C45.981,37.899,37.667,46.211,27.414,46.211z"/>
	<path fill="#FFFFFF" d="M156.146,41.805V27.643V0.17h-10.337v5.925C141.071,2.285,135.054,0,128.501,0
		c-15.268,0-27.643,12.377-27.643,27.643c0,15.268,12.375,27.645,27.643,27.645c6.552,0,12.57-2.285,17.307-6.096v6.328h10.299
		c0.012,0,0.024,0.003,0.038,0.003c3.787,0,6.857-3.072,6.857-6.858C163.002,44.876,159.933,41.805,156.146,41.805z M128.501,46.211
		c-10.254,0-18.568-8.312-18.568-18.569c0-10.254,8.314-18.567,18.568-18.567s18.568,8.313,18.568,18.567
		C147.069,37.899,138.755,46.211,128.501,46.211z"/>
	<path fill="#FFFFFF" d="M276.026,1.289h-9.605v54.329h9.605V14.933c3.768,0,6.821-3.054,6.821-6.821
		C282.848,4.343,279.794,1.289,276.026,1.289z"/>
	<path fill="#FFFFFF" d="M99.042,42.411l-0.646,0.484c-3.088,2.29-6.911,3.646-11.051,3.646c-10.254,0-18.568-8.313-18.568-18.567
		c0-0.055,0.005-0.11,0.005-0.165c0-0.056-0.005-0.11-0.005-0.167c0-10.254,8.314-18.567,18.568-18.567
		c4.14,0,7.962,1.356,11.051,3.647l0.646,0.483c1.331-2.666,3.073-5.088,5.153-7.18l0.131-0.186C99.64,2.185,93.75,0,87.346,0
		C72.078,0,59.703,12.377,59.703,27.643v0.167v0.165c0,15.267,12.375,27.644,27.643,27.644c6.404,0,12.294-2.184,16.98-5.84
		l-0.131-0.185C102.116,47.5,100.373,45.079,99.042,42.411z"/>
	<path fill="#FFFFFF" d="M377.13,41.805V27.643V0.17h-10.337v5.925C362.056,2.285,356.039,0,349.486,0
		c-15.267,0-27.642,12.377-27.642,27.643c0,15.268,12.375,27.645,27.642,27.645c6.553,0,12.57-2.285,17.307-6.096v6.328h10.299
		c0.012,0,0.024,0.003,0.038,0.003c3.788,0,6.857-3.072,6.857-6.858C383.988,44.876,380.918,41.805,377.13,41.805z M349.486,46.211
		c-10.253,0-18.567-8.312-18.567-18.569c0-10.254,8.314-18.567,18.567-18.567c10.254,0,18.568,8.313,18.568,18.567
		C368.054,37.899,359.74,46.211,349.486,46.211z"/>
	<path fill="#FFFFFF" d="M320.028,42.411l-0.646,0.484c-3.088,2.29-6.911,3.646-11.051,3.646c-10.254,0-18.569-8.313-18.569-18.567
		c0-0.055,0.004-0.11,0.004-0.165c0-0.057-0.004-0.11-0.004-0.167c0-10.254,8.315-18.567,18.569-18.567
		c4.14,0,7.963,1.356,11.051,3.647l0.646,0.482c1.331-2.666,3.073-5.088,5.152-7.179l0.13-0.186C320.626,2.185,314.735,0,308.332,0
		c-15.268,0-27.645,12.377-27.645,27.643v0.167v0.165c0,15.267,12.376,27.644,27.645,27.644c6.403,0,12.294-2.184,16.979-5.84
		l-0.13-0.185C323.101,47.5,321.358,45.079,320.028,42.411z"/>
	<g>
		<path fill="#FFFFFF" d="M261.722,27.63c0-0.382-0.012-0.76-0.027-1.138c-0.007-0.139-0.012-0.279-0.021-0.418
			c-0.016-0.29-0.039-0.577-0.065-0.862c-0.038-0.421-0.084-0.839-0.142-1.254c-0.003-0.026-0.006-0.051-0.01-0.076
			c-1.855-13.463-13.401-23.834-27.375-23.834c-6.553,0-12.569,2.284-17.307,6.094c-2.105,1.693-3.958,3.686-5.491,5.916
			c-1.358-1.985-2.969-3.786-4.787-5.353c-0.018-0.016-0.04-0.029-0.055-0.044c-0.002-0.001-0.003-0.002-0.004-0.003
			C201.604,2.511,195.326,0,188.458,0c-6.552,0-12.569,2.285-17.307,6.095V0.17h-10.333v27.473v10.481
			c4.035,1.796,6.857,5.844,6.857,10.54c0,2.517-0.821,4.842-2.195,6.741h1.265h4.406v-0.324v-5.841v-0.048v-2.242l0,0V35.036
			v-0.671v-5.784V24.61c0.355-3.176,1.547-6.098,3.357-8.54c1.852-2.502,4.35-4.497,7.248-5.742c2.08-0.806,4.338-1.252,6.702-1.252
			c5.861,0,11.083,2.718,14.484,6.96c0.009,0.011,0.016,0.023,0.025,0.034c1.987,2.681,3.229,5.943,3.436,9.484h0.035v2.136v0.051
			v4.407v9.756v6.776v6.822h0.059v0.021h9.606v-0.021h0.671v-0.324v-5.888v-0.05v-2.194V35.133V34.46v-5.783v-3.971
			c0.354-3.177,1.547-6.099,3.356-8.541c1.854-2.501,4.352-4.497,7.25-5.741c2.079-0.806,4.339-1.252,6.702-1.252
			c5.861,0,11.082,2.718,14.484,6.96c0.007,0.011,0.015,0.022,0.023,0.033c1.987,2.681,3.23,5.943,3.437,9.483h0.039v9.483h0.053
			v0.418v6.427c-3.724,0.05-6.731,3.081-6.731,6.818s3.007,6.768,6.731,6.817v0.005h9.606V27.74c0-0.012,0-0.021,0-0.032
			c0-0.007,0-0.012,0-0.019C261.724,27.67,261.722,27.65,261.722,27.63z"/>
	</g>
</g>
</svg>
