<?xml version="1.0" encoding="utf-8"?>
<!-- Generator: Adobe Illustrator 16.0.0, SVG Export Plug-In . SVG Version: 6.00 Build 0)  -->
<!DOCTYPE svg PUBLIC "-//W3C//DTD SVG 1.1//EN" "http://www.w3.org/Graphics/SVG/1.1/DTD/svg11.dtd">
<svg version="1.1" id="Capa_1" xmlns="http://www.w3.org/2000/svg" xmlns:xlink="http://www.w3.org/1999/xlink" x="0px" y="0px"
	 width="198px" height="198px" viewBox="0 0 198 198" enable-background="new 0 0 198 198" xml:space="preserve">
<circle fill="none" stroke="#FFFFFF" stroke-width="7" stroke-miterlimit="10" cx="98.875" cy="98.921" r="95.395"/>
<g>
	<path fill="#FFFFFF" d="M101.559,63.197c1.495,1.495,1.495,3.918,0,5.414l-54.133,54.133c-1.495,1.496-3.918,1.496-5.414,0l0,0
		c-1.495-1.495-1.495-3.918,0-5.413l54.134-54.134C97.641,61.702,100.064,61.702,101.559,63.197L101.559,63.197z"/>
	<path fill="#FFFFFF" d="M155.738,122.744c-1.495,1.496-3.918,1.496-5.413,0L96.191,68.611c-1.495-1.495-1.495-3.918,0-5.413l0,0
		c1.495-1.495,3.918-1.495,5.413,0l54.134,54.133C157.233,118.827,157.233,121.25,155.738,122.744L155.738,122.744z"/>
</g>
</svg>
