<?xml version="1.0" encoding="utf-8"?>
<!-- Generator: Adobe Illustrator 16.0.0, SVG Export Plug-In . SVG Version: 6.00 Build 0)  -->
<!DOCTYPE svg PUBLIC "-//W3C//DTD SVG 1.1//EN" "http://www.w3.org/Graphics/SVG/1.1/DTD/svg11.dtd">
<svg version="1.1" id="Capa_1" xmlns="http://www.w3.org/2000/svg" xmlns:xlink="http://www.w3.org/1999/xlink" x="0px" y="0px"
	 width="198px" height="198px" viewBox="0 0 198 198" enable-background="new 0 0 198 198" xml:space="preserve">
<circle fill="none" stroke="#FFFFFF" stroke-width="7" stroke-miterlimit="10" cx="98.875" cy="98.921" r="95.395"/>
<g>
	<path fill="#FFFFFF" d="M96.191,138.744c-1.495-1.495-1.495-3.918,0-5.414l54.133-54.133c1.495-1.496,3.918-1.496,5.414,0l0,0
		c1.495,1.495,1.495,3.918,0,5.413l-54.134,54.134C100.109,140.239,97.686,140.239,96.191,138.744L96.191,138.744z"/>
	<path fill="#FFFFFF" d="M42.012,79.197c1.495-1.496,3.918-1.496,5.413,0l54.134,54.133c1.495,1.495,1.495,3.918,0,5.413l0,0
		c-1.495,1.495-3.918,1.495-5.413,0L42.012,84.61C40.517,83.115,40.517,80.692,42.012,79.197L42.012,79.197z"/>
</g>
</svg>
