<?xml version="1.0" encoding="utf-8"?>
<!-- Generator: Adobe Illustrator 16.0.0, SVG Export Plug-In . SVG Version: 6.00 Build 0)  -->
<!DOCTYPE svg PUBLIC "-//W3C//DTD SVG 1.1//EN" "http://www.w3.org/Graphics/SVG/1.1/DTD/svg11.dtd">
<svg version="1.1" id="Layer_1" xmlns="http://www.w3.org/2000/svg" xmlns:xlink="http://www.w3.org/1999/xlink" x="0px" y="0px"
	 width="100px" height="68px" viewBox="0 0 100 68" enable-background="new 0 0 100 68" xml:space="preserve">
<path fill="#FFFFFF" d="M82.796,0.286c-6.215-1.041-12.244,0.818-16.707,4.589C62.586,2.78,58.641,1.29,54.371,0.575
	c-9.714-1.627-19.153,1.084-26.337,6.72c-1.277-0.492-2.623-0.863-4.025-1.098C12.787,4.317,2.166,11.891,0.286,23.114
	c-1.879,11.223,5.695,21.844,16.917,23.723c0.212,0.036,0.425,0.067,0.637,0.096c4.352,10.209,13.657,18.054,25.415,20.022
	c9.096,1.523,17.95-0.758,24.937-5.681c0.57,0.154,1.153,0.282,1.749,0.382c9.838,1.647,19.149-4.992,20.797-14.83
	c0.5-2.985,0.235-5.922-0.648-8.611c4.939-3.003,8.594-8.056,9.623-14.206C101.593,12.787,94.019,2.166,82.796,0.286z"/>
</svg>
