<?xml version="1.0" encoding="utf-8"?>
<!-- Generator: Adobe Illustrator 16.0.0, SVG Export Plug-In . SVG Version: 6.00 Build 0)  -->
<!DOCTYPE svg PUBLIC "-//W3C//DTD SVG 1.1//EN" "http://www.w3.org/Graphics/SVG/1.1/DTD/svg11.dtd">
<svg version="1.1" id="Layer_1" xmlns="http://www.w3.org/2000/svg" xmlns:xlink="http://www.w3.org/1999/xlink" x="0px" y="0px"
	 width="100px" height="67px" viewBox="0 0 100 67" enable-background="new 0 0 100 67" xml:space="preserve">
<path fill="#FFFFFF" d="M88.09,31.67c0.888-1.914,1.385-4.046,1.385-6.294c0-8.265-6.7-14.965-14.965-14.965
	c-4.69,0-8.876,2.158-11.62,5.535c-2.472-4.861-7.521-8.192-13.348-8.192c-2.343,0-4.56,0.539-6.534,1.499
	C40.763,3.822,35.415,0,29.173,0c-6.677,0-12.332,4.373-14.258,10.411C6.673,10.438,0,17.127,0,25.375
	c0,4.814,2.274,9.097,5.806,11.834c-1.038,2.521-1.612,5.282-1.612,8.179c0,11.87,9.623,21.492,21.493,21.492
	c8.885,0,16.51-5.391,19.784-13.08c3.195,3.994,8.108,6.553,13.621,6.553c6.298,0,11.815-3.34,14.88-8.346
	c2.349,4.311,6.92,7.236,12.174,7.236c7.652,0,13.855-6.203,13.855-13.855C100,38.396,94.82,32.615,88.09,31.67z"/>
</svg>
