<?xml version="1.0" encoding="utf-8"?>
<!-- Generator: Adobe Illustrator 16.0.0, SVG Export Plug-In . SVG Version: 6.00 Build 0)  -->
<!DOCTYPE svg PUBLIC "-//W3C//DTD SVG 1.1//EN" "http://www.w3.org/Graphics/SVG/1.1/DTD/svg11.dtd">
<svg version="1.1" id="Layer_1" xmlns="http://www.w3.org/2000/svg" xmlns:xlink="http://www.w3.org/1999/xlink" x="0px" y="0px"
	 width="100px" height="61px" viewBox="0 0 100 61" enable-background="new 0 0 100 61" xml:space="preserve">
<path fill="#FFFFFF" d="M100,17.908C100,8.018,91.982,0,82.093,0C75.614,0,69.94,3.44,66.796,8.592
	c-2.14-0.909-4.492-1.412-6.963-1.412c-2.781,0-5.413,0.638-7.76,1.774C48.978,3.602,43.19,0,36.562,0
	c-8.179,0-15.076,5.483-17.219,12.973c-1.973-1.31-4.339-2.074-6.885-2.074C5.578,10.899,0,16.477,0,23.357
	c0,6.881,5.578,12.458,12.458,12.458c0.065,0,0.13-0.001,0.196-0.002c-0.129,0.866-0.196,1.752-0.196,2.654
	c0,9.891,8.017,17.908,17.908,17.908c4.67,0,8.922-1.789,12.111-4.718c1.475,5.236,6.285,9.074,11.993,9.074
	c6.309,0,11.521-4.689,12.344-10.772c3.004,2.306,6.763,3.678,10.842,3.678c9.843,0,17.821-7.979,17.821-17.822
	c0-1.808-0.27-3.553-0.771-5.197C97.976,27.374,100,22.877,100,17.908z"/>
</svg>
