<?xml version="1.0" encoding="utf-8"?>
<!-- Generator: Adobe Illustrator 16.0.0, SVG Export Plug-In . SVG Version: 6.00 Build 0)  -->
<!DOCTYPE svg PUBLIC "-//W3C//DTD SVG 1.1//EN" "http://www.w3.org/Graphics/SVG/1.1/DTD/svg11.dtd">
<svg version="1.1" id="Layer_1" xmlns="http://www.w3.org/2000/svg" xmlns:xlink="http://www.w3.org/1999/xlink" x="0px" y="0px"
	 width="1000px" height="500px" viewBox="0 0 1000 500" enable-background="new 0 0 1000 500" xml:space="preserve">
<g>
	<path fill="#33A841" d="M1249.833-201.107c-8.66,399.994-351.351,713.686-765.445,700.722
		C70.19,486.698-258.445,151.974-249.834-248.019c4.849-221.339,112.037-416.362,276.974-544.11
		c5.344-4.182,10.688-8.152,16.18-12.136c5.789-3.217,9.896-10.28,16.43-11.777c5.593-3.798,11.183-7.51,16.875-11.259
		C201.379-908.445,353.003-953.8,515.71-948.74C929.807-935.762,1258.493-601.088,1249.833-201.107z"/>
	<path fill="#298248" d="M-63.372,248.322C70.536,396.188,264.968,492.291,483.052,499.12
		c218.23,6.976,416.471-76.901,556.368-215.906c-146.627,47.209-340.81,72.744-553.151,66.062
		C273.924,342.496,81.077,304.838-63.372,248.322z"/>
	<path fill="#846628" d="M598.204-944.199c-28.307-2.512-57.604-4.404-87.542-5.604c-29.937-1.237-59.184-1.72-87.537-1.497
		c-129.259,9.477-249.757,59.111-351.399,126.214c-5.297,3.513-10.641,7.09-15.885,10.714c0.642,0.05,6.384,4.528,10.737,6.261
		c1.236-5.297,12.917,12.037,10.986,6.123c1.087-1.236,1.931-3.7,8.807,6.618c9.85,16.9,7.969,7.72,9.949,6.36
		c5.54,6.432,6.829,3.042,11.183,6c1.386-3.75,7.57,2.795,12.372,5.728c1.931-3.316,5.244-4.23,13.559,5.48
		c8.215,9.439,20.388,27.18,14.648,5.234c5.839,3.524,13.359,10.008,15.735,4.998c4.702,0.173,11.332,3.797,16.775,4.638
		c4.257-1.781,10.986,1.597,17.815,4.406c6.68,2.783,6.68-9.478,18.706,4.181c7.324,3.401,16.775,10.948,19.793,3.984
		c1.98-8.971,12.718,0.655,20.637,3.624c6.879,0.879,15.539,5.294,21.577,3.439c6.926,0.246,13.21-1.286,22.365,3.167
		c4.998-4.639,17.47,6.309,23.309,2.858c8.66,2.747,16.33,2.796,23.95,2.747c7.524-0.582,16.035,0.656,24.895,2.449
		c8.165,0.407,11.033-11.197,25.485,2.127c4.354-8.634,18.557,3.935,26.177,2.031c8.511-0.1,19.002,3.574,26.921,1.67
		c6.879-4.331,17.417-0.829,27.562,1.497c3.958-1.113,5.643-7.498,12.618-2.079c7.77,6.792,10.293,2.079,15.438,3.327
		c2.575-4.058,11.235,5.234,14.303,2.203c7.175,5.95,7.966-2.029,12.668-1.324c2.177-4.985,4.752-8.92,12.026-2.61
		c4.649,0.668,11.528,5.877,14.549,3.193c2.622-3.973,10.937,4.664,13.163,0.048c5.839,3.167,10.737,4.54,13.063-0.048
		c8.906-0.347,19.696,3.524,26.971-0.223c9.202,0.48,21.029,6.841,26.376-0.656c8.262-1.251,18.357,1.72,25.831-1.063
		c8.411-0.483,16.825-0.842,25.04-1.449c9.65,2.326,12.864-8.92,24.396-1.906c5.988-4.936,21.478,10.775,23.604-2.2
		c10.837,6.085,15.293-1.77,22.764-2.513c6.334-3.267,17.42,4.008,21.923-2.908c6.234-2.783,14.153-1.904,20.933-3.217
		c6.779-1.113,13.459-2.338,19.992-3.574c58.491-11.123,103.078-26.402,128.021-44.748c2.821-2.03,9.7-7.547,11.927-9.576
		C862.409-870.948,733.843-923.316,598.204-944.199z"/>
	<path fill="#50D679" d="M1085.243-604.664c-60.768,22.775-153.702,40.293-266.779,50.117c-5.938,0.532-11.877,0.964-17.862,1.422
		c-3.662,5.679-14.748-4.812-18.164,1.311c-7.767-2.906-11.578,2.512-18.606,1.201c-6.779-0.891-11.332,3.34-18.803,1.137
		c-8.115-3.649-9.946,6.606-19.102,0.967c-7.225-1.547-13.163-0.138-19.4,0.828c-8.262-3.625-12.914,0.705-19.594,0.656
		c-3.961,4.106-11.631,0.309-17.42,0.532c-4.257,3.526-11.481,0.718-17.566,0.359c-7.028-2.512-13.017-2.512-17.719,0.309
		c-6.876-1.856-10.192,3.873-17.962,0.123c-3.018,0.05-5.988,0.05-9.056,0.05c-2.971,0-5.988,0-9.006,0
		c-6.088-0.173-9.65,5.468-18.311-0.05c-9.451-7.397-9.896,5.06-18.36-0.173c-7.274-2.61-10.441,4.046-18.557-0.309
		c-7.72-3.315-13.213-1.956-18.706-0.359c-9.302-6.866-12.272,0.111-18.853-0.582c-5.096,2.388-13.36-2.152-18.804-0.655
		c-7.966-3.923-9.352,6.309-18.656-0.792c-2.868,7.077-11.628,1.2-18.606-0.829c-7.324-2.993-13.409-3.34-18.36-0.965
		c-5.689,0.583-16.775-10.762-18.258-1.137c-4.852-4.157-5.742,0.357-9.155-0.891c-4.948-4.282-6.879-2.303-8.909-0.347
		c-2.077,1.893-5.095,1.534-8.361,0.829c-3.167-0.781-6.683-2.029-9.551-2.104c-4.257,3.217-13.857-5.395-17.716-1.422
		c-6.088-0.952-12.473-2.426-17.57-1.485c-6.035-0.964-10.887,0.582-17.367-1.547c-7.228-2.027-11.086,3.144-19.547-1.904
		c-6.434-0.483-17.224-10.714-19.351-2.029c-7.175-2.424-15.589-7.72-19.002-2.202c-6.729-1.844-11.581,0.58-18.656-2.253
		c-4.257,3.65-13.954-4.998-18.457-2.438c-3.366,5.42-11.136,0.656-18.161-2.423c-4.752,2.016-11.481-0.668-17.815-2.648
		c-6.979,1.151-19.547-10.157-23.804-3.686c-4.107,6.828-16.775-5.309-23.109-3.885c-7.078-0.223-15.094-2.785-22.468-4.157
		c-8.016-2.783-17.221-8.512-21.724-4.232c-9.056-5.591-8.856,8.562-20.982-4.503c-5.145,2.499-17.616-11.741-20.288-4.54
		c-1.386,9.935-10.292,3.092-19.547-4.764c-2.127,7.682-11.876-1.843-18.656-4.937c-6.68-2.994-10.641-0.234-17.915-5.071
		c-6.035-2.376-11.827-4.232-16.922-5.06c-5.443-1.658-10.937-3.577-16.134-5.358c-15.64-5.394-29.939-10.887-42.757-16.589
		c-2.227-1.015-4.107-1.956-6.185-2.969c11.728,7.806,24.346,15.415,38.004,22.726c4.554,2.512,9.701,6.088,13.858,7.324
		c4.998,3.094,11.777,9.835,14.449,7.151c5.344,3.34,10.192,5.294,15.094,6.964c7.916,8.562,10.688,5.604,15.586,6.892
		c7.67,7.373,15.144,14.115,16.184,6.618c4.157-0.792,10.341,2.785,16.725,6.482c5.543,1.794,16.034,14.291,17.271,6.36
		c8.461,7.731,10.392,1.063,17.766,6.05c6.879,4.107,9.352-1.942,18.261,5.962c5.145-0.309,6.68-8.821,18.753,5.704
		c5.692,0.519,15.094,8.933,19.201,5.543c5.297-0.842,11.382-0.125,19.696,5.294c5.643-0.359,16.576,10.689,20.142,5.121
		c6.53,1.189,12.964,1.893,20.534,4.887c11.382,11.481,14.502,4.591,20.982,4.641c5.988-0.583,17.271,9.699,21.328,4.453
		c12.126,12.088,10.541-5.777,21.727,4.181c5.64-2.25,15.39,4.157,22.169,3.984c4.652-4.812,16.43,5.777,22.515,3.749
		c4.058-6.543,14.698,1.238,22.863,3.439c8.956,3.933,14.203-0.125,23.11,3.167c7.77,1.065,15.589,2.079,23.555,2.969
		c6.088,0.779,12.223,1.497,18.46,2.104c5.988,0.357,13.854,4.589,18.656,1.954c5.194-1.547,9.205-6.136,18.803,1.794
		c5.938-0.297,10.937-2.735,19.052,1.645c5.593-1.188,11.581-1.597,19.102,1.324c6.533,0.779,12.521,0.123,19.4,1.311
		c5.737-1.065,13.706,2.512,19.445,1.113c6.038-0.754,12.372-0.877,19.547,0.842c6.63,0.357,12.668-0.533,19.746,0.753
		c4.008,0.138,8.016,0.186,11.974,0.311c4.107,0.123,4.802-6.891,12.076,0.296c4.649,1.151,9.155,1.98,12.419,0.261
		c4.406,0.705,12.967,10.342,12.272,0.1c-1.386-12.015,7.324-1.894,11.332-2.08c2.821-2.684,6.979-2.511,13.213,2.128
		c2.525-3.39,6.188-4.28,12.422,0.482c4.849,1.857,3.117-10.937,11.877-0.705c3.908-0.125,8.856,1.768,11.282-1.856
		c7.078,6.718,12.817,10.342,12.668,1.25c7.274,6.94,10.146,4.578,11.481-1.323c6.729,5.95,6.185-4.046,12.272,0.482
		c4.107,0.048,7.919-0.174,11.777-0.482c4.107,0.234,5.643-5.197,11.728-0.583c7.819-0.432,15.539-0.829,23.259-1.359
		c161.522-10.652,301.37-41.432,399.055-85.462c-8.212-13.585-16.825-26.909-25.881-39.936
		C1109.888-614.673,1098.31-609.601,1085.243-604.664z"/>
	<path fill="#50D679" d="M1003.792-365.202c-10.491-10.541-9.7,3.809-15.838,3.217c-9.202-7.573-16.181-9.7-16.28,3.067
		c-3.463,5.543-7.819,9.056-16.726,2.919c-6.04-0.05-4.754,16.132-17.026,2.87c-7.075-1.881-9.056,7.374-17.467,2.722
		c-1.485,10.541-17.171-9.946-17.865,2.574c-4.453,4.305-10.986,4.107-18.261,2.375c-5.394,2.376-11.877,2.574-18.606,2.228
		c-6.58,0.098-10.787,5.295-18.952,2.128c-6.434,0.593-8.314,11.133-19.301,1.978c-1.336,11.878-9.797,8.314-19.644,1.783
		c-6.287,1.238-11.086,5.741-19.942,1.583c-11.186-9.255-13.907,0-20.291,1.534c-7.125-0.347-11.183,6.287-20.487,1.337
		c-7.77-1.436-17.171-6.384-20.933,1.137c-6.135,2.079-14.895-1.187-21.032,0.99c-8.016-1.633-21.029-14.104-21.475,0.791
		c-9.305-4.553-14.153,0.841-21.627,0.645c-8.71-3.019-16.43-3.861-21.873,0.495c-7.075,0.495-15.489-1.635-22.02,0.296
		c-9.7-4.75-15.193-0.445-22.418,0.1c-7.521,0-14.994,0-22.564-0.1c-7.573-0.198-14.994,0.199-22.714-0.198
		c-7.028,1.239-13.608,3.266-22.913-0.495c-10.986-7.274-13.163,4.554-23.159-0.643c-11.034-7.374-15.883-1.485-23.058-0.841
		c-11.977-9.501-15.639-1.238-22.963-0.99c-5.739,3.812-15.636-1.682-22.714-1.138c-14.695-15.983-10.737,8.709-22.564-1.386
		c-8.314-2.227-16.529-4.405-22.269-1.484c-9.105-4.157-7.819,14.104-22.072-1.633c-5.443,3.514-16.775-5.988-21.824-1.929
		c-8.461-3.267-14.944-2.326-21.624-1.931c-6.779,0-17.42-8.413-21.229-2.227c-4.503,4.998-11.382,4.603-21.082-2.276
		c-5.643,2.177-16.23-6.729-20.733-2.524c-5.197,2.82-11.086,4.106-20.537-2.673c-8.464-4.701-20.191-16.478-20.142-2.722
		c-8.115-4.107-10.591,4.058-19.843-2.771c-1.931,9.057-18.062-13.113-19.597-3.117c-10.046-9.006-16.579-10.392-19.102-3.217
		c-7.77-4.206-11.631,0.149-18.855-3.265c-2.572,6.877-13.113-3.712-18.457-3.415c-4.652,1.979-11.481-0.841-18.161-3.562
		c-5.147,0.445-10.887-0.249-17.716-3.662c-7.474-4.8-10.591-0.248-17.32-3.812c-8.165-6.58-6.185,8.859-16.975-3.908
		c-4.749,0.445-11.479-3.562-16.526-4.008c-8.958-9.105-12.222-5.84-16.133-4.107c-5.493-1.783-13.213-8.66-15.686-4.257
		c-9.354-4.553-16.034-3.762-24.448-7.077c-12.173-11.394-16.775-7.163-23.307-7.336c-5.493,1.991-11.877,1.484-22.022-7.595
		c-8.165-4.95-14.153-5.481-20.684-7.857c-7.374-4.23-13.213-5.555-19.301-8.027c-3.712,2.856-12.322-5.779-17.962-8.265
		c-4.852-0.841-10.541-4.008-16.43-8.338c-6.533-5.52-10.591-6.583-15.094-8.687c-4.948-3.524-9.155-5.827-13.362-8.82
		c-12.718-8.821-23.01-17.914-30.729-27.192c-11.086,27.316-20.438,55.411-28.011,84.286c16.333,10.95,36.275,21.637,59.285,31.882
		c2.572,1.137,5.147,2.276,7.77,3.413c11.086,20.388,36.076,32.959,54.583,11.382c4.752-5.591,15.24-0.791,21.129,4.207
		c5.147,5.196,7.178,13.459,14.599,16.38c3.316,1.039,6.829,2.029,10.195,3.067c16.33,4.702,33.306,9.205,51.071,13.659
		c5.938,1.436,11.924,2.821,18.012,4.307c5.443,0.048,10.737-0.447,18.41,4.204c6.779,2.476,10.092-2.622,18.902,4.059
		c6.929,2.672,12.768,2.672,19.298,4.009c32.464,6.48,66.759,12.419,102.536,17.764c1.731,0.593,3.662,1.039,5.394,1.436
		c1.236,7.768,9.551,19.942,14.698,15.042c18.706-15.142,43.251-23.555,64.28-5.591c0.694,1.534,3.762,0.248,5.842,1.039
		c2.077,0.199,4.204,0.445,6.284,0.595c17.517,2.029,35.332,3.762,53.394,5.493c5.988,0.595,12.076,1.138,18.111,1.682
		c5.543-0.642,13.067,2.921,18.312,1.535c6.829,1.929,10.641-2.722,18.46,1.436c7.72,3.76,11.033-2.178,18.606,1.336
		c2.473-7.869,14.004,4.156,18.753,1.187c6.188,0.248,14.303,4.603,18.905,1.14c7.075,2.077,12.618,0.642,19.002,0.939
		c6.729,1.188,12.123-0.643,19.102,0.94c2.326,0.743,2.968-2.276,6.384,1.039c1.187,0.694,5.098,8.81,9.006,14.253
		c3.366,4.107,7.125,6.384,11.481,2.87c2.821-3.315,6.531-3.71,7.718-9.453c1.187-5.739,3.712-8.461,7.025-10.292
		c2.229-4.107,7.919-1.583,10.84-6.582c4.699,0.198,9.747,2.325,12.123-0.297c4.652,2.177,5.739-2.424,11.282,3.662
		c4.553,3.662,9.75,9.848,10.441,6.533c2.326,1.137,5.839,2.77,7.523,1.087c3.662,3.069,4.699,0.545,6.63,0.1
		c10.541,3.464,17.071-1.781,26.871,0.199c8.561-0.645,18.606,2.077,26.572,0c4.356-0.1,9.305,1.037,13.957,1.582
		c3.858-1.137,9.601,1.831,12.272-1.831c4.948,1.238,8.461-0.741,13.063-0.196c8.065,8.016,12.322,7.866,13.014-0.249
		c6.633,1.781,12.126,1.286,17.174-0.445c0.445-11.578,9.747-3.81,17.071-0.445c5.493-0.445,9.896-3.365,16.825-0.593
		c2.622-3.81,8.165-0.643,12.817-0.05c6.284,4.455,4.603-8.512,12.223-1.088c6.088,4.157,7.521-2.079,13.509,1.881
		c4.157-0.1,3.712-10.392,11.186-3.117c2.077-4.553,5.988-5.147,11.924-1.189c3.565-1.532,7.178-2.672,12.372-0.396
		c5.048,2.03,7.424-1.781,12.917,1.286c3.809-0.691,7.374-1.978,11.036-2.918c7.966-0.445,14.944-3.069,23.604-1.881
		c7.816-0.495,17.271,2.572,23.109-2.128c8.265,0.643,15.34-1.188,22.664-2.227c7.521-0.792,14.944-1.683,22.269-2.524
		c139.552-16.23,251.785-43.597,319.432-78.338c-6.48-32.215-15.141-63.946-25.931-94.652
		c-10.887,11.604-26.127,22.726-45.674,33.081c-4.849,2.635-10.245,4.664-15.29,7.67c-9.105-5.714-10.89,5.357-16.825,7.436
		c-9.65-5.938-8.265,12.718-18.261,7.077c-0.744,14.599-12.076,6.532-19.646,6.829c-4.898,6.483-16.975-2.524-21.032,6.582
		c-8.76-1.238-14.845,3.71-22.318,6.136c-8.215,0.693-16.972,0.495-23.555,5.839C1015.815-379.207,1016.41-357.927,1003.792-365.202
		z"/>
	<path fill="#50D679" d="M-245.876-152.512c0.744,6.533,1.09,13.213,2.08,19.843c4.204,29.941,10.491,59.285,18.507,88.087
		c30.683,14.994,65.716,29.147,104.663,42.357c5.543,1.931,11.133,3.712,16.875,5.543c7.025,4.752,10.292,1.239,17.367,5.493
		c4.107-2.077,7.178-6.58,17.815,5.394c10.591,11.777,10.937,0.794,18.261,5.098c4.702-1.436,10.342-0.891,18.607,5.048
		c7.175,3.513,14.203,6.68,19.102,4.898c4.257-3.067,12.272,1.831,19.497,4.802c6.434,1.236,14.253,5.394,19.846,4.553
		c5.294-1.485,13.954,4.058,20.288,4.553c7.72,3.264,10.491-4.107,20.687,4.254c5.839-0.94,14.2,3.366,20.979,4.157
		c8.215,3.712,10.74-4.898,21.328,4.008c9.7,6.683,13.758,0.99,21.776,3.861c6.829,0.296,15.34,3.958,21.97,3.562
		c7.969,2.326,16.726,6.434,22.368,3.513c6.483-1.187,15.39,2.971,22.714,3.366c4.702-5.294,13.412-1.98,22.963,3.067
		c6.68-1.386,14.054-1.087,23.256,2.921c3.762-7.869,16.778,4.158,23.607,2.819c9.946,5.197,13.31-3.709,23.851,2.525
		c8.956,3.117,13.857-3.067,24,2.426c8.959,2.473,19.597,8.807,24.398,2.127c6.035-3.812,14.301-3.067,24.593,1.931
		c10.541,5.739,18.609,5.839,24.794,1.781c9.7,3.662,15.785-0.744,25.04,1.485c9.352,2.818,18.952,5.739,25.187,1.482
		c8.414,0.299,18.51,4.257,25.438,1.14c9.105,1.582,17.566,1.532,25.682,0.94c6.879-2.971,17.468,2.127,24.938,0.642
		c8.065-0.296,15.044-2.918,24.744,0.495c8.411,0.445,16.43,0.149,24.645,0.249c10.688,5.443,20.534,9.202,24.396,0
		c8.66,1.187,16.034-0.398,24.199-0.199c7.521-1.09,15.984-0.246,23.95-0.296c9.155,2.423,17.716,3.562,23.804-0.595
		c9.451,3.217,15.686-0.595,23.455-0.841c8.859,1.831,15.589-0.545,23.408-0.94c9.847,4.304,15.536-0.296,22.96-1.236
		c8.265,0.94,16.726,2.423,22.813-1.336c5.543-4.951,16.43,1.831,22.564-1.585c5.098-5.739,13.559-3.958,22.219-1.731
		c7.274-0.891,15.738,0.99,21.973-1.881c4.503-6.879,17.47,5.098,21.674-2.127c8.464,2.077,13.362-3.712,21.378-2.227
		c6.829-1.289,15.738,1.831,21.032-2.575c5.739-3.663,12.076-5.74,20.733-2.672c7.028-0.595,10.245-9.401,20.44-2.771
		c6.729-1.037,13.755-1.336,20.089-3.067c8.416,2.921,8.466-12.322,19.698-3.117c4.752-4.802,14.253,0.741,19.348-3.366
		c3.17-8.115,12.967-1.632,19.005-3.413c8.511,3.759,15.835,4.998,18.507-3.712c2.03-10.245,15.639,4.898,18.261-3.812
		c5.098-3.217,12.419-1.386,17.766-3.858c5.244-2.771,10.737-4.802,17.417-4.257c5.742-1.336,11.382-2.771,16.975-4.207
		c44.687-11.578,84.82-24.741,119.558-39.19c8.065-24.844,14.648-50.476,19.992-76.406c-32.215,11.382-67.646,21.873-105.999,31.324
		c-6.434,1.582-12.864,3.167-19.397,4.603c-6.234,2.127-12.272,4.948-19.843,4.453c-6.088,2.821-11.531,7.125-20.291,4.304
		c-11.382-8.66-11.083,8.563-20.733,4.011c-9.006-3.12-12.768,5.244-21.182,3.908c-6.63,2.376-14.25,2.622-21.624,3.612
		c-7.869-0.199-14.499,2.426-21.973,3.463c-1.881,3.812-7.57-0.445-10.342,1.585c-3.316,0.595-6.63,1.831-10.392,1.535
		c-2.871-2.476-2.821,1.878-5.443,0.196c-5.1-6.929-4.01-0.495-4.95,1.585c-1.731,0.296-1.239,5.394-4.752,1.582
		c-1.236,1.485-4.699-1.931-5.938-0.545c-0.296,3.516-4.553-1.831-6.68-2.326c-2.276-0.791-2.127,3.565-2.968,5.938
		c-0.645,2.575-3.366,0.744-6.879-2.672c-3.021-2.473-5.197-3.217-4.901,1.635c-0.396,3.363,0.545,9.352-3.363,4.998
		c-0.396,3.413-3.117,1.582-5.593,0.396c-2.426-1.09-5.147-2.971-6.284-1.189c0.645,5.593-5.394-3.463-6.483-1.582
		c-3.562-3.712-2.968,1.632-7.67-4.207c-2.572-1.485-2.426,2.971-4.107,3.562c-6.284-9.697-4.553-1.482-4.898,1.931
		c-0.694,2.622-1.485,5.098-5.344,0.94c-4.652-1.682-13.066-11.531-11.927-0.741c-6.088-4.752-4.403,7.521-10.392,2.818
		c-2.575,3.021-6.583,2.722-11.282,0.94c-0.445,7.72-6.929,2.03-11.335,1.04c-1.582,5.147-2.572,11.531-11.332,0.891
		c-1.336,5.789-9.006-2.227-11.578,0.791c-5.938-1.532-8.115,5.197-15.34,1.09c-5.742-0.891-10.345,0.595-15.539,0.99
		c-5.098,0.445-10.295,0.841-15.589,0.841c-2.027,4.058-8.215-1.09-11.382,0.595c-3.712,0.146-7.57,0.296-11.332,0.495
		c-7.474,0.642-16.131-1.289-22.913,0.938c-9.501-3.709-14.895,1.585-23.109,0.694c-6.334,3.413-15.39,0.741-23.355,0.595
		c-11.235-7.474-15.439,0.741-23.558,0.296c-6.68,2.821-14.054,3.908-23.751,0.149c-12.176-9.105-16.38-1.04-23.903-0.1
		c-9.302-2.921-13.063,6.334-24.1-0.199c-6.926,2.13-16.43-1.037-24.149-0.495c-8.065-0.097-17.862-3.908-24.346-0.691
		c-5.593,2.572-14.253-1.632-20.388-0.694c-6.036,1.339-12.47,1.734-20.189-0.841c-6.976-0.891-12.817,0.645-20.042-0.94
		c-7.225-1.582-13.755-1.731-19.893-1.137c-5.443,2.227-13.362-1.09-19.843-1.236c-5.889,1.037-12.372,0.642-19.646-1.386
		c-7.374-2.426-12.917-0.744-19.547-1.485c-6.384-0.346-12.917-0.94-19.351-1.632c-6.779-1.289-12.668-0.595-19.299-1.685
		c-6.334-0.642-13.362-2.672-19.102-1.881c-6.038,0.05-12.867-1.731-18.952-2.027c-5.988-0.05-12.176-0.645-18.806-2.08
		c-6.284-0.987-13.014-2.672-18.656-2.276c-5.493,0.595-11.777-0.346-18.41-2.323c-3.067,1.286-7.471-0.349-11.678-1.585
		c-4.058-0.891-7.62-0.691-11.528-1.585c-3.366,0.694-8.215-2.027-11.136-0.741c-3.612,0-7.77-1.386-11.877-2.622
		c-3.316,0.396-7.075,0-11.531-2.227c-2.918,1.386-6.826,0.642-11.183-1.336c-4.503-2.326-7.869-2.13-11.086-1.635
		c-3.214,0.595-9.252-5.145-11.183-1.978c-5.098-3.612-7.57-1.635-11.382-2.476c-3.662-0.642-6.68,0.1-10.688-1.386
		c-3.861-1.187-10.986-9.401-11.086-2.572c-4.752-2.971-9.352-5.789-10.591-1.485c-3.513-0.246-7.175-1.386-11.827-4.403
		c-3.562-0.545-6.085,0.791-9.601,0.146c-4.453-2.622-8.461-4.453-10.937-3.018c-3.363-0.346-6.381,0.1-10.043-1.336
		c-2.229,2.177-5.742,1.436-9.454-0.1c-3.809-1.436-7.916-3.712-11.282-4.354c-12.223-13.362-14.25-4.453-20.288-4.652
		c-12.422-14.104-13.263-3.018-19.992-4.849c-3.961,4.107-13.263-3.712-19.547-4.948c-6.683-2.229-10.837,0.891-19.151-5.098
		c-1.931,7.866-11.086-0.249-18.807-5.297c-4.652,1.585-13.014-5.244-18.308-5.443c-3.466,3.911-13.066-5.938-17.965-5.49
		c-5.938-1.881-10.195-0.448-17.517-5.692c-6.633-3.762-11.432-3.858-17.074-5.839
		C-164.126-112.677-208.614-131.975-245.876-152.512z"/>
</g>
</svg>
