<?xml version="1.0" encoding="utf-8"?>
<!-- Generator: Adobe Illustrator 16.0.0, SVG Export Plug-In . SVG Version: 6.00 Build 0)  -->
<!DOCTYPE svg PUBLIC "-//W3C//DTD SVG 1.1//EN" "http://www.w3.org/Graphics/SVG/1.1/DTD/svg11.dtd">
<svg version="1.1" id="Layer_1" xmlns="http://www.w3.org/2000/svg" xmlns:xlink="http://www.w3.org/1999/xlink" x="0px" y="0px"
	 width="1000px" height="968px" viewBox="0 0 1000 968" enable-background="new 0 0 1000 968" xml:space="preserve">
<g>
	<path fill="#87AA3E" d="M999.896,500.178c-5.773,266.646-234.232,475.789-510.305,467.146
		C213.46,958.713-5.63,735.566,0.11,468.919c3.233-147.583,74.691-277.599,184.648-362.764c3.563-2.788,7.126-5.427,10.788-8.083
		c3.86-2.144,6.598-6.862,10.953-7.852c3.728-2.54,7.456-4.998,11.25-7.505c83.169-54.104,184.252-84.34,292.726-80.958
		C786.547,10.4,1005.67,233.516,999.896,500.178z"/>
	<path fill="#87AA3E" d="M124.419,799.781c89.272,98.592,218.892,162.66,364.282,167.213
		c145.497,4.635,277.657-51.25,370.92-143.955c-97.75,31.49-227.205,48.514-368.776,44.076
		C349.283,862.58,220.718,837.473,124.419,799.781z"/>
	<path fill="#738E2F" d="M565.479,4.759c-18.871-1.649-38.402-2.936-58.369-3.728c-19.959-0.825-39.457-1.155-58.361-0.99
		c-86.171,6.301-166.503,39.391-234.266,84.126c-3.53,2.342-7.093,4.734-10.59,7.143c0.429,0.033,4.256,3.035,7.159,4.157
		c0.825-3.53,8.61,8.033,7.324,4.091c0.726-0.825,1.287-2.475,5.872,4.42c6.565,11.25,5.312,5.163,6.631,4.223
		c3.695,4.289,4.553,2.045,7.456,4.025c0.923-2.507,5.047,1.847,8.247,3.794c1.287-2.21,3.497-2.804,9.04,3.678
		c5.477,6.301,13.592,18.112,9.765,3.497c3.894,2.342,8.908,6.664,10.491,3.315c3.134,0.099,7.555,2.541,11.184,3.101
		c2.838-1.188,7.324,1.056,11.877,2.936c4.454,1.864,4.454-6.317,12.471,2.788c4.882,2.243,11.184,7.291,13.196,2.639
		c1.319-5.988,8.479,0.429,13.757,2.425c4.585,0.594,10.358,3.53,14.384,2.293c4.618,0.181,8.809-0.858,14.911,2.111
		c3.332-3.101,11.646,4.206,15.539,1.913c5.773,1.815,10.887,1.848,15.968,1.815c5.014-0.396,10.688,0.412,16.594,1.633
		c5.443,0.28,7.357-7.472,16.99,1.435c2.903-5.773,12.371,2.606,17.452,1.336c5.674-0.083,12.668,2.392,17.946,1.089
		c4.586-2.887,11.613-0.528,18.376,1.006c2.64-0.742,3.761-4.982,8.413-1.386c5.179,4.52,6.861,1.386,10.292,2.227
		c1.715-2.689,7.488,3.497,9.535,1.468c4.791,3.959,5.318-1.353,8.453-0.874c1.451-3.332,3.168-5.971,8.018-1.749
		c3.1,0.429,7.686,3.926,9.699,2.128c1.748-2.639,7.289,3.118,8.775,0.049c3.893,2.095,7.158,3.019,8.709-0.049
		c5.938-0.231,13.131,2.359,17.98-0.148c6.135,0.33,14.02,4.569,17.584-0.429c5.508-0.857,12.238,1.138,17.221-0.709
		c5.607-0.347,11.217-0.561,16.693-0.973c6.432,1.55,8.576-5.938,16.264-1.271c3.992-3.266,14.318,7.192,15.736-1.468
		c7.225,4.058,10.193-1.171,15.176-1.666c4.223-2.178,11.613,2.656,14.615-1.93c4.156-1.864,9.436-1.287,13.955-2.144
		c4.52-0.759,8.973-1.551,13.328-2.392c38.994-7.406,68.719-17.601,85.346-29.856c1.881-1.336,6.467-5.031,7.951-6.367
		C741.613,53.602,655.904,18.681,565.479,4.759z"/>
	<path fill="#A4C652" d="M890.17,231.14c-40.512,15.176-102.469,26.854-177.852,33.387c-3.959,0.363-7.918,0.643-11.91,0.973
		c-2.441,3.777-9.83-3.2-12.107,0.874c-5.18-1.93-7.719,1.666-12.404,0.792c-4.52-0.594-7.555,2.227-12.535,0.759
		c-5.412-2.425-6.633,4.404-12.734,0.643c-4.816-1.039-8.775-0.099-12.934,0.544c-5.51-2.441-8.609,0.479-13.064,0.445
		c-2.639,2.722-7.752,0.198-11.611,0.347c-2.838,2.342-7.654,0.478-11.713,0.247c-4.684-1.682-8.676-1.682-11.811,0.215
		c-4.586-1.237-6.795,2.557-11.975,0.066c-2.014,0.049-3.992,0.049-6.037,0.049c-1.98,0-3.992,0-6.004,0
		c-4.059-0.115-6.434,3.646-12.207-0.049c-6.301-4.916-6.598,3.381-12.24-0.116c-4.85-1.749-6.961,2.689-12.371-0.214
		c-5.146-2.227-8.809-1.287-12.471-0.231c-6.211-4.585-8.189,0.083-12.578-0.396c-3.397,1.6-8.907-1.435-12.536-0.429
		c-5.312-2.606-6.235,4.207-12.438-0.511c-1.913,4.718-7.753,0.792-12.404-0.544c-4.883-1.996-8.94-2.243-12.239-0.644
		c-3.794,0.396-11.184-7.175-12.174-0.758c-3.233-2.771-3.827,0.264-6.104-0.594c-3.299-2.854-4.585-1.534-5.938-0.247
		c-1.386,1.287-3.398,1.056-5.576,0.561c-2.111-0.511-4.453-1.353-6.367-1.386c-2.837,2.145-9.237-3.596-11.811-0.957
		c-4.058-0.627-8.313-1.633-11.711-1.006c-4.025-0.626-7.259,0.396-11.58-1.022c-4.816-1.353-7.39,2.095-13.031-1.27
		c-4.289-0.33-11.48-7.143-12.899-1.353c-4.783-1.633-10.392-5.163-12.668-1.468c-4.487-1.221-7.72,0.379-12.438-1.518
		c-2.838,2.441-9.304-3.332-12.306-1.633c-2.243,3.629-7.423,0.429-12.107-1.616c-3.167,1.336-7.654-0.445-11.877-1.749
		c-4.651,0.759-13.031-6.796-15.868-2.474c-2.738,4.585-11.184-3.53-15.406-2.574c-4.718-0.165-10.062-1.847-14.979-2.771
		c-5.344-1.848-11.48-5.674-14.482-2.821c-6.037-3.728-5.905,5.741-13.988-3.019c-3.431,1.699-11.745-7.819-13.559-3.002
		c-0.891,6.614-6.829,2.045-12.998-3.184c-1.418,5.146-7.918-1.221-12.438-3.266c-4.454-1.996-7.093-0.182-11.942-3.382
		c-4.025-1.583-7.885-2.82-11.283-3.381c-3.629-1.072-7.291-2.375-10.755-3.563c-10.425-3.596-19.959-7.258-28.504-11.068
		c-1.485-0.676-2.738-1.287-4.124-1.963c7.819,5.196,16.231,10.26,25.337,15.143c3.035,1.649,6.466,4.042,9.237,4.883
		c3.332,2.045,7.852,6.532,9.6,4.75c3.596,2.227,6.829,3.53,10.095,4.635c5.278,5.708,7.126,3.745,10.392,4.585
		c5.113,4.916,10.095,9.402,10.788,4.421c2.771-0.528,6.895,1.848,11.151,4.322c3.695,1.188,10.689,9.518,11.514,4.239
		c5.642,5.18,6.928,0.709,11.844,4.042c4.586,2.738,6.235-1.303,12.173,3.975c3.431-0.214,4.454-5.889,12.504,3.811
		c3.794,0.363,10.062,5.955,12.8,3.695c3.53-0.544,7.588-0.099,13.131,3.53c3.761-0.248,11.052,7.142,13.427,3.398
		c4.354,0.792,8.644,1.27,13.691,3.266c7.588,7.654,9.666,3.035,13.987,3.084c3.992-0.379,11.514,6.466,14.22,2.986
		c8.082,8.066,7.026-3.86,14.482,2.771c3.761-1.518,10.26,2.771,14.779,2.656c3.102-3.2,10.953,3.86,15.011,2.491
		c2.706-4.354,9.799,0.841,15.242,2.31c5.971,2.606,9.468-0.083,15.406,2.111c5.18,0.693,10.393,1.386,15.704,1.979
		c4.058,0.511,8.148,0.99,12.305,1.385c3.992,0.231,9.237,3.052,12.438,1.303c3.464-1.056,6.137-4.074,12.537,1.188
		c3.958-0.215,7.29-1.831,12.701,1.088c3.728-0.792,7.72-1.056,12.734,0.891c4.354,0.512,8.347,0.066,12.932,0.858
		c3.828-0.709,9.138,1.699,12.966,0.775c4.023-0.511,8.256-0.594,13.039,0.544c4.42,0.247,8.445-0.347,13.162,0.511
		c2.674,0.083,5.346,0.115,7.984,0.198c2.738,0.083,3.201-4.585,8.051,0.214c3.1,0.759,6.102,1.287,8.279,0.165
		c2.938,0.479,8.645,6.895,8.182,0.083c-0.924-8.017,4.883-1.287,7.555-1.386c1.881-1.798,4.652-1.682,8.809,1.419
		c1.684-2.26,4.125-2.854,8.281,0.313c3.232,1.237,2.078-7.308,7.918-0.462c2.605-0.066,5.904,1.171,7.521-1.221
		c4.717,4.487,8.545,6.895,8.445,0.825c4.85,4.652,6.764,3.084,7.654-0.858c4.486,3.959,4.123-2.705,8.182,0.297
		c2.738,0.066,5.277-0.099,7.852-0.297c2.738,0.148,3.762-3.464,7.818-0.396c5.213-0.297,10.359-0.544,15.506-0.924
		c107.682-7.093,200.912-27.613,266.035-56.975c-5.477-9.04-11.217-17.914-17.254-26.624
		C906.6,224.476,898.881,227.841,890.17,231.14z"/>
	<path fill="#A4C652" d="M835.867,390.765c-6.992-7.011-6.465,2.523-10.557,2.144c-6.135-5.031-10.787-6.466-10.854,2.062
		c-2.309,3.662-5.213,6.021-11.15,1.947c-4.025-0.05-3.168,10.755-11.35,1.897c-4.717-1.271-6.037,4.916-11.645,1.814
		c-0.99,7.027-11.447-6.631-11.91,1.715c-2.969,2.854-7.324,2.738-12.174,1.583c-3.596,1.6-7.918,1.715-12.404,1.484
		c-4.387,0.083-7.191,3.53-12.635,1.419c-4.289,0.396-5.543,7.406-12.867,1.303c-0.891,7.951-6.531,5.559-13.098,1.188
		c-4.189,0.825-7.389,3.86-13.295,1.072c-7.455-6.186-9.27,0-13.525,1.022c-4.75-0.231-7.455,4.173-13.658,0.875
		c-5.18-0.94-11.447-4.239-13.955,0.759c-4.09,1.385-9.93-0.792-14.021,0.676c-5.344-1.089-14.02-9.402-14.316,0.511
		c-6.203-3.019-9.436,0.561-14.418,0.445c-5.807-2.029-10.953-2.59-14.582,0.313c-4.717,0.363-10.326-1.056-14.68,0.214
		c-6.467-3.184-10.129-0.297-14.945,0.083c-5.014,0-9.996,0-15.043-0.083c-5.049-0.132-9.996,0.148-15.143-0.132
		c-4.686,0.841-9.072,2.177-15.275-0.33c-7.332-4.866-8.783,3.019-15.447-0.429c-7.358-4.916-10.59-0.99-15.375-0.544
		c-7.983-6.334-10.425-0.841-15.308-0.676c-3.826,2.524-10.425-1.138-15.143-0.742c-9.798-10.689-7.158,5.79-15.043-0.94
		c-5.543-1.501-11.02-2.936-14.846-0.99c-6.07-2.771-5.213,9.402-14.714-1.105c-3.629,2.359-11.185-3.959-14.549-1.27
		c-5.642-2.178-9.964-1.551-14.417-1.287c-4.52,0-11.613-5.592-14.153-1.485c-3.002,3.332-7.588,3.068-14.054-1.518
		c-3.761,1.435-10.821-4.487-13.823-1.699c-3.464,1.897-7.39,2.771-13.691-1.765c-5.641-3.134-13.46-10.969-13.427-1.814
		c-5.41-2.738-7.06,2.705-13.229-1.864c-1.286,6.07-12.041-8.726-13.063-2.062c-6.697-6.004-11.053-6.945-12.734-2.145
		c-5.18-2.804-7.753,0.083-12.57-2.177c-1.715,4.602-8.742-2.475-12.305-2.26c-3.102,1.303-7.654-0.594-12.108-2.392
		c-3.431,0.297-7.258-0.165-11.811-2.458c-4.981-3.184-7.06-0.132-11.547-2.541c-5.443-4.371-4.124,5.922-11.315-2.573
		c-3.167,0.28-7.654-2.392-11.019-2.688c-5.971-6.07-8.148-3.893-10.755-2.738c-3.662-1.188-8.809-5.757-10.458-2.87
		c-6.235-3.002-10.689-2.491-16.297-4.718c-8.116-7.571-11.184-4.751-15.539-4.883c-3.662,1.32-7.917,1.023-14.681-5.064
		c-5.443-3.299-9.436-3.646-13.79-5.229c-4.916-2.837-8.809-3.711-12.866-5.377c-2.475,1.914-8.215-3.827-11.976-5.509
		c-3.233-0.544-7.027-2.656-10.953-5.542c-4.354-3.695-7.06-4.404-10.062-5.807c-3.299-2.342-6.103-3.86-8.907-5.872
		c-8.479-5.889-15.341-11.942-20.487-18.112c-7.39,18.211-13.625,36.933-18.673,56.167c10.887,7.307,24.182,14.417,39.523,21.262
		c1.715,0.759,3.431,1.518,5.18,2.26c7.39,13.625,24.05,22.005,36.388,7.588c3.167-3.695,10.161-0.528,14.087,2.804
		c3.431,3.464,4.784,9.006,9.732,10.953c2.21,0.676,4.553,1.353,6.796,2.012c10.887,3.151,22.203,6.153,34.046,9.122
		c3.959,0.973,7.951,1.864,12.008,2.854c3.629,0.066,7.159-0.28,12.273,2.837c4.52,1.633,6.73-1.782,12.602,2.672
		c4.619,1.798,8.512,1.798,12.866,2.672c21.642,4.322,44.504,8.281,68.357,11.86c1.154,0.379,2.441,0.676,3.596,0.94
		c0.824,5.212,6.367,13.295,9.798,10.062c12.471-10.128,28.834-15.736,42.854-3.744c0.462,1.039,2.508,0.148,3.894,0.676
		c1.386,0.148,2.804,0.33,4.189,0.429c11.679,1.353,23.556,2.491,35.597,3.646c3.992,0.396,8.05,0.759,12.075,1.122
		c3.694-0.445,8.709,1.93,12.206,1.023c4.553,1.27,7.093-1.798,12.306,0.957c5.146,2.491,7.356-1.468,12.404,0.891
		c1.649-5.262,9.336,2.771,12.504,0.792c4.123,0.165,9.534,3.052,12.602,0.759c4.718,1.386,8.413,0.413,12.669,0.627
		c4.486,0.792,8.082-0.429,12.734,0.643c1.55,0.462,1.979-1.518,4.256,0.676c0.791,0.445,3.397,5.873,6.004,9.501
		c2.243,2.738,4.751,4.239,7.654,1.897c1.88-2.177,4.354-2.475,5.147-6.301c0.791-3.827,2.473-5.642,4.684-6.862
		c1.484-2.738,5.279-1.04,7.225-4.372c3.143,0.116,6.508,1.551,8.092-0.198c3.102,1.468,3.826-1.633,7.521,2.425
		c3.035,2.474,6.5,6.598,6.961,4.354c1.551,0.759,3.893,1.864,5.014,0.726c2.441,2.062,3.135,0.363,4.422,0.066
		c7.027,2.326,11.381-1.171,17.914,0.148c5.707-0.445,12.404,1.386,17.715,0c2.904-0.049,6.203,0.709,9.305,1.056
		c2.572-0.759,6.4,1.221,8.182-1.237c3.299,0.858,5.641-0.462,8.709-0.115c5.377,5.361,8.215,5.246,8.676-0.165
		c4.422,1.188,8.084,0.841,11.449-0.28c0.297-7.736,6.498-2.573,11.381-0.33c3.662-0.28,6.598-2.227,11.217-0.379
		c1.748-2.54,5.443-0.429,8.545-0.049c4.189,2.985,3.068-5.674,8.148-0.726c4.057,2.788,5.014-1.385,9.006,1.271
		c2.771-0.066,2.475-6.928,7.457-2.095c1.385-3.019,3.99-3.415,7.949-0.792c2.375-0.99,4.785-1.749,8.248-0.248
		c3.365,1.353,4.949-1.188,8.611,0.841c2.539-0.445,4.914-1.303,7.355-1.946c5.312-0.281,9.965-2.029,15.738-1.237
		c5.211-0.347,11.514,1.699,15.406-1.418c5.51,0.429,10.227-0.792,15.109-1.501c5.014-0.511,9.963-1.105,14.846-1.666
		c93.033-10.804,167.855-29.048,212.953-52.224c-4.32-21.494-10.094-42.641-17.287-63.111c-7.258,7.736-17.418,15.159-30.449,22.054
		c-3.234,1.765-6.83,3.118-10.195,5.147c-6.07-3.844-7.258,3.562-11.217,4.948c-6.432-3.959-5.508,8.495-12.172,4.701
		c-0.496,9.732-8.051,4.388-13.098,4.536c-3.266,4.338-11.316-1.649-14.021,4.421c-5.84-0.841-9.896,2.474-14.879,4.074
		c-5.477,0.479-11.316,0.347-15.703,3.91C843.885,381.445,844.281,395.615,835.867,390.765z"/>
	<path fill="#A4C652" d="M2.75,532.559c0.495,4.371,0.726,8.842,1.385,13.246c2.804,19.959,6.994,39.521,12.338,58.723
		c20.455,10.012,43.812,19.432,69.742,28.256c3.728,1.254,7.456,2.459,11.283,3.695c4.685,3.135,6.862,0.791,11.58,3.645
		c2.738-1.385,4.784-4.371,11.877,3.58c7.06,7.852,7.291,0.545,12.173,3.398c3.134-0.939,6.895-0.594,12.404,3.381
		c4.784,2.344,9.468,4.438,12.734,3.268c2.837-2.062,8.182,1.203,12.999,3.184c4.289,0.824,9.501,3.611,13.229,3.051
		c3.53-0.99,9.303,2.705,13.526,3.035c5.146,2.178,6.994-2.738,13.79,2.854c3.893-0.643,9.468,2.227,13.988,2.771
		c5.477,2.457,7.159-3.283,14.219,2.639c6.466,4.471,9.171,0.676,14.516,2.59c4.553,0.197,10.227,2.656,14.647,2.375
		c5.312,1.568,11.151,4.289,14.912,2.359c4.321-0.791,10.26,1.979,15.143,2.227c3.134-3.529,8.94-1.318,15.308,2.062
		c4.454-0.941,9.369-0.727,15.506,1.945c2.507-5.262,11.184,2.756,15.736,1.848c6.631,3.48,8.874-2.457,15.901,1.717
		c5.971,2.061,9.237-2.062,16,1.582c5.972,1.666,13.064,5.873,16.265,1.436c4.024-2.539,9.534-2.061,16.396,1.303
		c7.026,3.811,12.404,3.877,16.528,1.172c6.466,2.441,10.523-0.494,16.693,1.006c6.234,1.848,12.635,3.811,16.792,0.957
		c5.608,0.215,12.338,2.854,16.957,0.76c6.07,1.072,11.712,1.039,17.122,0.627c4.586-1.98,11.645,1.434,16.627,0.445
		c5.385-0.199,10.037-1.947,16.504,0.312c5.607,0.33,10.951,0.115,16.428,0.182c7.127,3.645,13.691,6.119,16.266,0
		c5.773,0.791,10.688-0.264,16.133-0.148c5.014-0.709,10.654-0.148,15.967-0.197c6.104,1.633,11.811,2.391,15.867-0.381
		c6.303,2.145,10.459-0.395,15.639-0.543c5.904,1.203,10.393-0.396,15.604-0.645c6.566,2.854,10.359-0.197,15.309-0.824
		c5.51,0.627,11.15,1.617,15.209-0.891c3.695-3.283,10.953,1.221,15.043-1.057c3.398-3.826,9.039-2.654,14.812-1.154
		c4.85-0.594,10.492,0.645,14.648-1.27c3.002-4.586,11.645,3.414,14.449-1.418c5.643,1.385,8.908-2.459,14.252-1.469
		c4.553-0.875,10.492,1.221,14.021-1.715c3.826-2.441,8.049-3.828,13.822-1.783c4.686-0.379,6.83-6.268,13.625-1.846
		c4.488-0.678,9.172-0.893,13.395-2.029c5.609,1.945,5.643-8.248,13.131-2.096c3.166-3.217,9.502,0.512,12.898-2.227
		c2.111-5.428,8.645-1.105,12.67-2.309c5.674,2.523,10.557,3.332,12.338-2.459c1.352-6.828,10.424,3.283,12.174-2.539
		c3.396-2.145,8.279-0.924,11.844-2.574c3.496-1.863,7.158-3.217,11.611-2.82c3.828-0.924,7.588-1.863,11.316-2.805
		c29.791-7.736,56.545-16.527,79.705-26.145c5.377-16.578,9.766-33.65,13.328-50.953c-21.477,7.604-45.098,14.598-70.666,20.898
		c-4.289,1.039-8.578,2.111-12.932,3.051c-4.156,1.436-8.182,3.301-13.23,2.986c-4.057,1.863-7.686,4.75-13.525,2.871
		c-7.588-5.773-7.391,5.707-13.822,2.672c-6.006-2.096-8.512,3.496-14.121,2.59c-4.42,1.584-9.5,1.764-14.416,2.424
		c-5.246-0.131-9.666,1.633-14.648,2.311c-1.254,2.523-5.047-0.297-6.895,1.039c-2.211,0.428-4.422,1.221-6.928,1.039
		c-1.914-1.65-1.881,1.27-3.629,0.115c-3.398-4.602-2.672-0.33-3.299,1.055c-1.156,0.215-0.826,3.613-3.168,1.072
		c-0.824,0.99-3.135-1.303-3.959-0.361c-0.197,2.342-3.035-1.221-4.453-1.551c-1.518-0.529-1.418,2.391-1.98,3.959
		c-0.428,1.715-2.242,0.494-4.586-1.781c-2.012-1.666-3.463-2.145-3.266,1.104c-0.264,2.229,0.363,6.236-2.242,3.332
		c-0.264,2.26-2.078,1.039-3.729,0.248c-1.617-0.727-3.432-1.979-4.189-0.791c0.428,3.727-3.596-2.311-4.322-1.057
		c-2.375-2.457-1.979,1.105-5.113-2.82c-1.715-0.99-1.617,1.996-2.738,2.408c-4.189-6.482-3.035-1.006-3.266,1.27
		c-0.463,1.732-0.99,3.383-3.564,0.611c-3.1-1.09-8.709-7.688-7.949-0.463c-4.059-3.184-2.938,4.998-6.928,1.848
		c-1.717,2.029-4.389,1.832-7.523,0.645c-0.297,5.162-4.617,1.352-7.555,0.676c-1.055,3.447-1.715,7.688-7.555,0.594
		c-0.891,3.877-6.004-1.469-7.719,0.545c-3.959-1.039-5.41,3.463-10.229,0.725c-3.826-0.594-6.895,0.381-10.357,0.678
		c-3.398,0.264-6.863,0.543-10.393,0.543c-1.354,2.689-5.477-0.709-7.588,0.381c-2.475,0.115-5.047,0.197-7.555,0.346
		c-4.982,0.412-10.756-0.857-15.275,0.627c-6.334-2.49-9.93,1.039-15.406,0.461c-4.223,2.26-10.26,0.479-15.572,0.396
		c-7.488-4.965-10.293,0.494-15.703,0.197c-4.453,1.898-9.369,2.623-15.834,0.084c-8.117-6.055-10.92-0.678-15.936-0.051
		c-6.201-1.945-8.709,4.207-16.066-0.148c-4.619,1.42-10.953-0.676-16.1-0.33c-5.377-0.049-11.908-2.572-16.23-0.428
		c-3.736,1.699-9.51-1.105-13.602-0.479c-4.024,0.873-8.313,1.154-13.459-0.561c-4.651-0.594-8.544,0.412-13.361-0.627
		c-4.816-1.057-9.171-1.139-13.262-0.76c-3.629,1.469-8.907-0.742-13.229-0.824c-3.926,0.676-8.247,0.428-13.097-0.924
		c-4.916-1.617-8.611-0.512-13.031-1.006c-4.256-0.23-8.611-0.611-12.899-1.09c-4.521-0.824-8.446-0.395-12.866-1.104
		c-4.224-0.43-8.908-1.766-12.734-1.254c-4.025,0.033-8.578-1.156-12.636-1.354c-3.992-0.033-8.116-0.445-12.536-1.385
		c-4.19-0.645-8.677-1.781-12.438-1.535c-3.662,0.396-7.852-0.23-12.272-1.533c-2.046,0.857-4.981-0.248-7.786-1.057
		c-2.705-0.594-5.08-0.479-7.687-1.055c-2.243,0.445-5.477-1.354-7.423-0.496c-2.408,0-5.18-0.924-7.918-1.764
		c-2.21,0.279-4.718,0-7.687-1.469c-1.946,0.908-4.553,0.43-7.456-0.875c-3.002-1.566-5.245-1.418-7.39-1.104
		c-2.145,0.395-6.17-3.449-7.456-1.32c-3.398-2.408-5.048-1.088-7.588-1.666c-2.441-0.43-4.454,0.082-7.126-0.908
		c-2.573-0.791-7.324-6.268-7.39-1.715c-3.167-1.996-6.235-3.859-7.061-0.99c-2.342-0.164-4.783-0.939-7.884-2.936
		c-2.375-0.363-4.058,0.527-6.4,0.115c-2.969-1.781-5.641-2.984-7.291-2.029c-2.243-0.23-4.255,0.051-6.697-0.873
		c-1.485,1.436-3.827,0.924-6.301-0.082c-2.541-0.957-5.278-2.475-7.522-2.904c-8.148-8.908-9.501-2.969-13.526-3.102
		c-8.281-9.402-8.842-2.012-13.328-3.248c-2.64,2.738-8.842-2.475-13.031-3.283c-4.454-1.469-7.225,0.609-12.768-3.398
		c-1.287,5.229-7.39-0.164-12.536-3.529c-3.102,1.055-8.677-3.498-12.207-3.613c-2.31,2.59-8.709-3.975-11.976-3.662
		c-3.959-1.254-6.796-0.33-11.679-3.811c-4.421-2.49-7.654-2.59-11.382-3.875C57.25,559.133,27.592,546.25,2.75,532.559z"/>
	<ellipse fill="#7A963C" cx="512.834" cy="940.129" rx="76.602" ry="10.272"/>
	<path fill="#7A963C" d="M629.544,898.519c-24.316,0.939-44.094-2.517-44.172-7.719c-0.08-5.203,19.568-10.182,43.885-11.12
		s44.094,2.517,44.172,7.721C673.509,892.603,653.86,897.581,629.544,898.519z"/>
	<g>
		<path fill="#7A963C" d="M773.186,875.839c-19.158,9.231-36.407,13.67-38.526,9.917c-2.119-3.752,11.695-14.277,30.853-23.507
			c19.158-9.231,36.407-13.67,38.526-9.917S792.344,866.61,773.186,875.839z"/>
	</g>
	<g>
		<path fill="#7A963C" d="M374.503,908.416c-1.875,5.196-26.737,3.029-55.535-4.843c-28.797-7.871-50.626-18.463-48.752-23.654
			c1.872-5.196,26.731-3.028,55.528,4.843C354.546,892.632,376.373,903.223,374.503,908.416z"/>
	</g>
	<ellipse fill="#7A963C" cx="492.021" cy="838.124" rx="76.602" ry="21.92"/>
</g>
</svg>
