<?xml version="1.0" encoding="utf-8"?>
<!-- Generator: Adobe Illustrator 16.0.0, SVG Export Plug-In . SVG Version: 6.00 Build 0)  -->
<!DOCTYPE svg PUBLIC "-//W3C//DTD SVG 1.1//EN" "http://www.w3.org/Graphics/SVG/1.1/DTD/svg11.dtd">
<svg version="1.1" id="Layer_1" xmlns="http://www.w3.org/2000/svg" xmlns:xlink="http://www.w3.org/1999/xlink" x="0px" y="0px"
	 width="1000px" height="174px" viewBox="0 0 1000 174" enable-background="new 0 0 1000 174" xml:space="preserve">
<polygon fill="#394A52" points="286.856,23.505 194.456,81.321 102.055,139.137 277.064,149.425 419.028,157.287 369.464,91.609 "/>
<polygon fill="#394A52" points="577.403,23.505 485.002,81.321 392.602,139.137 567.61,149.425 709.573,157.287 660.011,91.609 "/>
<polygon fill="#233239" points="740.185,22.709 878.449,112.917 986.413,169.306 749.92,165.973 599.195,175.665 652.146,100.654 
	"/>
<polygon fill="#233239" points="479.784,1 368.184,75.557 256.583,150.113 468.673,164.525 640.712,175.587 580.273,89.968 "/>
<ellipse fill="#82602E" cx="241.287" cy="156.392" rx="6.179" ry="1.34"/>
<g>
	<polygon fill="#233239" points="333.991,153.348 236.217,88.028 138.444,22.709 77.939,105.457 -2.544,162.289 -2.544,174.582 
		148.179,165.973 	"/>
</g>
<path fill="#A47C38" d="M1002,175.665v-2.256C725.89,99.528,157.372,123.186-3,160.249v15.416H1002z"/>
</svg>
