<?xml version="1.0" encoding="utf-8"?>
<!-- Generator: Adobe Illustrator 16.0.0, SVG Export Plug-In . SVG Version: 6.00 Build 0)  -->
<!DOCTYPE svg PUBLIC "-//W3C//DTD SVG 1.1//EN" "http://www.w3.org/Graphics/SVG/1.1/DTD/svg11.dtd">
<svg version="1.1" id="Layer_1" xmlns="http://www.w3.org/2000/svg" xmlns:xlink="http://www.w3.org/1999/xlink" x="0px" y="0px"
	 width="1000px" height="174px" viewBox="0 0 1000 174" enable-background="new 0 0 1000 174" xml:space="preserve">
<polygon fill="#394A52" points="286.856,23.505 194.456,81.321 102.055,139.137 277.064,149.425 419.028,157.287 369.464,91.609 "/>
<polygon fill="#394A52" points="577.403,23.505 485.002,81.321 392.602,139.137 567.61,149.425 709.573,157.287 660.011,91.609 "/>
<polygon fill="#233239" points="740.185,22.709 878.449,112.917 986.413,169.306 749.92,165.973 599.195,175.665 652.146,100.654 
	"/>
<polygon fill="#233239" points="479.784,1 368.184,75.557 256.583,150.113 468.673,164.525 640.712,175.587 580.273,89.968 "/>
<ellipse fill="#82602E" cx="241.287" cy="156.392" rx="6.179" ry="1.34"/>
<g>
	<polygon fill="#233239" points="333.991,153.348 236.217,88.028 138.444,22.709 77.939,105.457 -2.544,162.289 -2.544,174.582 
		148.179,165.973 	"/>
</g>
<path fill="#A47C38" d="M1002,175.665v-2.256C725.89,99.528,157.372,123.186-3,160.249v15.416H1002z"/>
<g>
	<path id="path2855" sodipodi:nodetypes="ccssssscc" fill="#C8924B" d="M240.966,145.188h3.717c0,0,1.487,0,1.487-0.743
		c0-0.744-1.487-4.46,0-5.205c1.486-0.742,2.973,0,2.973,1.487c0,1.486,0.744,4.461,0.744,5.947c0,1.487-2.055,2.23-3.717,2.23
		c-2.23,0-5.947,0.743-5.947,0.743L240.966,145.188z"/>
	<path id="path2857" sodipodi:nodetypes="ccssssscc" fill="#C8924B" d="M240.966,146.674h-3.717c0,0-1.487,0-1.487-0.744
		c0-0.742,1.487-3.717,0-4.458c-1.487-0.745-2.974,0-2.974,1.485c0,1.487-0.743,3.717-0.743,5.204c0,1.486,2.054,2.229,3.717,2.229
		c2.23,0,5.947,0.744,5.947,0.744L240.966,146.674z"/>
	<path id="path2853" sodipodi:nodetypes="csscc" fill="#DDA757" d="M238.047,155.913c0.818,0.478,0.374-20.999,0.689-21.683
		c0.621-1.351,3.344,0.023,3.717,2.973c0.358,2.83,1.843,18.521,1.369,18.71C243.099,156.844,239.488,157.602,238.047,155.913z"/>
	<path id="path3984" sodipodi:nodetypes="cccc" fill="#CD9B52" d="M237.906,140.805l1.314,1.753
		c0.662-0.117,0.537-0.559,0.375-0.971L237.906,140.805z"/>
	<path id="path3990" sodipodi:nodetypes="cccc" fill="#CD9B52" d="M232.96,142.62l1.314,1.752c0.661-0.116,0.536-0.557,0.375-0.97
		L232.96,142.62z"/>
	<path id="path3994" sodipodi:nodetypes="cccc" fill="#CD9B52" d="M231.896,146.688l1.314,1.753
		c0.662-0.115,0.536-0.559,0.376-0.969L231.896,146.688z"/>
	<path id="path3998" sodipodi:nodetypes="cccc" fill="#CD9B52" d="M234.65,149.193l1.315,1.754c0.662-0.118,0.536-0.56,0.375-0.972
		L234.65,149.193z"/>
	<path id="path4002" sodipodi:nodetypes="cccc" fill="#CD9B52" d="M238.406,145.5l1.315,1.753c0.661-0.118,0.536-0.56,0.375-0.972
		L238.406,145.5z"/>
	<path id="path4006" sodipodi:nodetypes="cccc" fill="#CD9B52" d="M238.469,152.198l1.315,1.752
		c0.661-0.116,0.536-0.559,0.375-0.971L238.469,152.198z"/>
	<path id="path4012" sodipodi:nodetypes="cccc" fill="#CD9B52" d="M249.678,139.178l-1.314,1.753
		c-0.663-0.117-0.536-0.559-0.376-0.97L249.678,139.178z"/>
	<path id="path4016" sodipodi:nodetypes="cccc" fill="#CD9B52" d="M249.491,143.06l-1.314,1.752
		c-0.663-0.116-0.537-0.558-0.376-0.97L249.491,143.06z"/>
	<path id="path4020" sodipodi:nodetypes="cccc" fill="#CD9B52" d="M251.056,145.312l-1.315,1.754
		c-0.661-0.116-0.536-0.559-0.375-0.971L251.056,145.312z"/>
	<path id="path4024" sodipodi:nodetypes="cccc" fill="#CD9B52" d="M243.668,149.319l-1.314,1.753
		c-0.662-0.117-0.537-0.559-0.376-0.971L243.668,149.319z"/>
	<path id="path4028" sodipodi:nodetypes="cccc" fill="#CD9B52" d="M243.855,142.807l-1.316,1.754
		c-0.66-0.116-0.536-0.559-0.375-0.971L243.855,142.807z"/>
	<path id="path4032" sodipodi:nodetypes="cccc" fill="#CD9B52" d="M243.98,139.49l-1.314,1.751
		c-0.663-0.115-0.537-0.557-0.376-0.969L243.98,139.49z"/>
	<path id="path3988" sodipodi:nodetypes="cccc" fill="#CD9B52" d="M245,143.853l-0.289,2.173c-0.633,0.222-0.74-0.225-0.801-0.663
		L245,143.853z"/>
	<path id="path4036" sodipodi:nodetypes="cccc" fill="#CD9B52" d="M236.897,145.542l0.289,2.172c0.635,0.224,0.74-0.226,0.802-0.662
		L236.897,145.542z"/>
</g>
<g>
	<ellipse fill="#82602E" cx="208.102" cy="138.974" rx="3.577" ry="0.776"/>
	<g>
		<path id="path2855_1_" sodipodi:nodetypes="ccssssscc" fill="#C8924B" d="M207.917,132.488h2.152c0,0,0.861,0,0.861-0.431
			s-0.861-2.581,0-3.012c0.86-0.431,1.721,0,1.721,0.86s0.431,2.582,0.431,3.443c0,0.86-1.189,1.291-2.152,1.291
			c-1.291,0-3.442,0.43-3.442,0.43L207.917,132.488z"/>
		<path id="path2857_1_" sodipodi:nodetypes="ccssssscc" fill="#C8924B" d="M207.917,133.35h-2.151c0,0-0.861,0-0.861-0.432
			c0-0.43,0.861-2.151,0-2.581c-0.86-0.431-1.721,0-1.721,0.859c0,0.861-0.43,2.153-0.43,3.014s1.189,1.29,2.151,1.29
			c1.292,0,3.442,0.431,3.442,0.431L207.917,133.35z"/>
		<path id="path2853_1_" sodipodi:nodetypes="csscc" fill="#DDA757" d="M206.227,138.697c0.474,0.276,0.217-12.155,0.399-12.551
			c0.36-0.782,1.936,0.013,2.151,1.721c0.208,1.639,1.067,10.72,0.793,10.83C209.152,139.235,207.061,139.673,206.227,138.697z"/>
		<path id="path3984_1_" sodipodi:nodetypes="cccc" fill="#CD9B52" d="M206.145,129.951l0.762,1.015
			c0.383-0.067,0.31-0.324,0.217-0.562L206.145,129.951z"/>
		<path id="path3990_1_" sodipodi:nodetypes="cccc" fill="#CD9B52" d="M203.283,131.002l0.761,1.014
			c0.383-0.066,0.311-0.321,0.217-0.56L203.283,131.002z"/>
		<path id="path3994_1_" sodipodi:nodetypes="cccc" fill="#CD9B52" d="M202.667,133.357l0.76,1.014
			c0.383-0.066,0.311-0.322,0.217-0.56L202.667,133.357z"/>
		<path id="path3998_1_" sodipodi:nodetypes="cccc" fill="#CD9B52" d="M204.261,134.808l0.762,1.015
			c0.382-0.067,0.31-0.324,0.217-0.562L204.261,134.808z"/>
		<path id="path4002_1_" sodipodi:nodetypes="cccc" fill="#CD9B52" d="M206.435,132.669l0.761,1.015
			c0.383-0.067,0.311-0.324,0.217-0.562L206.435,132.669z"/>
		<path id="path4006_1_" sodipodi:nodetypes="cccc" fill="#CD9B52" d="M206.471,136.547l0.761,1.014
			c0.383-0.068,0.311-0.323,0.218-0.562L206.471,136.547z"/>
		<path id="path4012_1_" sodipodi:nodetypes="cccc" fill="#CD9B52" d="M212.959,129.01l-0.76,1.014
			c-0.384-0.066-0.311-0.322-0.218-0.561L212.959,129.01z"/>
		<path id="path4016_1_" sodipodi:nodetypes="cccc" fill="#CD9B52" d="M212.851,131.256l-0.76,1.015
			c-0.383-0.068-0.311-0.323-0.218-0.562L212.851,131.256z"/>
		<path id="path4020_1_" sodipodi:nodetypes="cccc" fill="#CD9B52" d="M213.757,132.561l-0.762,1.015
			c-0.382-0.067-0.31-0.323-0.216-0.562L213.757,132.561z"/>
		<path id="path4024_1_" sodipodi:nodetypes="cccc" fill="#CD9B52" d="M209.481,134.881l-0.761,1.014
			c-0.384-0.067-0.312-0.323-0.218-0.562L209.481,134.881z"/>
		<path id="path4028_1_" sodipodi:nodetypes="cccc" fill="#CD9B52" d="M209.589,131.11l-0.762,1.016
			c-0.382-0.068-0.31-0.324-0.217-0.562L209.589,131.11z"/>
		<path id="path4032_1_" sodipodi:nodetypes="cccc" fill="#CD9B52" d="M209.662,129.19l-0.761,1.015
			c-0.383-0.068-0.311-0.323-0.217-0.562L209.662,129.19z"/>
		<path id="path3988_1_" sodipodi:nodetypes="cccc" fill="#CD9B52" d="M210.252,131.717l-0.167,1.256
			c-0.367,0.13-0.429-0.129-0.464-0.383L210.252,131.717z"/>
		<path id="path4036_1_" sodipodi:nodetypes="cccc" fill="#CD9B52" d="M205.562,132.693l0.167,1.258
			c0.367,0.128,0.428-0.13,0.464-0.384L205.562,132.693z"/>
	</g>
</g>
<g>
	<ellipse fill="#82602E" cx="656.55" cy="156.392" rx="6.18" ry="1.34"/>
	<g>
		<path id="path2855_2_" sodipodi:nodetypes="ccssssscc" fill="#C8924B" d="M656.229,145.188h3.717c0,0,1.487,0,1.487-0.743
			c0-0.744-1.487-4.46,0-5.205c1.487-0.742,2.974,0,2.974,1.487c0,1.486,0.744,4.461,0.744,5.947c0,1.487-2.056,2.23-3.718,2.23
			c-2.229,0-5.946,0.743-5.946,0.743L656.229,145.188z"/>
		<path id="path2857_2_" sodipodi:nodetypes="ccssssscc" fill="#C8924B" d="M656.229,146.674h-3.717c0,0-1.486,0-1.486-0.744
			c0-0.742,1.486-3.717,0-4.458c-1.487-0.745-2.974,0-2.974,1.485c0,1.487-0.744,3.717-0.744,5.204c0,1.486,2.056,2.229,3.718,2.229
			c2.229,0,5.947,0.744,5.947,0.744L656.229,146.674z"/>
		<path id="path2853_2_" sodipodi:nodetypes="csscc" fill="#DDA757" d="M653.311,155.913c0.818,0.478,0.373-20.999,0.688-21.683
			c0.621-1.351,3.344,0.023,3.717,2.973c0.358,2.83,1.842,18.521,1.369,18.71C658.361,156.844,654.752,157.602,653.311,155.913z"/>
		<path id="path3984_2_" sodipodi:nodetypes="cccc" fill="#CD9B52" d="M653.168,140.805l1.315,1.753
			c0.661-0.117,0.536-0.559,0.374-0.971L653.168,140.805z"/>
		<path id="path3990_2_" sodipodi:nodetypes="cccc" fill="#CD9B52" d="M648.224,142.62l1.312,1.752
			c0.663-0.116,0.537-0.557,0.377-0.97L648.224,142.62z"/>
		<path id="path3994_2_" sodipodi:nodetypes="cccc" fill="#CD9B52" d="M647.158,146.688l1.314,1.753
			c0.662-0.115,0.537-0.559,0.376-0.969L647.158,146.688z"/>
		<path id="path3998_2_" sodipodi:nodetypes="cccc" fill="#CD9B52" d="M649.913,149.193l1.315,1.754
			c0.66-0.118,0.536-0.56,0.374-0.972L649.913,149.193z"/>
		<path id="path4002_2_" sodipodi:nodetypes="cccc" fill="#CD9B52" d="M653.669,145.5l1.314,1.753
			c0.663-0.118,0.537-0.56,0.376-0.972L653.669,145.5z"/>
		<path id="path4006_2_" sodipodi:nodetypes="cccc" fill="#CD9B52" d="M653.732,152.198l1.313,1.752
			c0.662-0.116,0.536-0.559,0.376-0.971L653.732,152.198z"/>
		<path id="path4012_2_" sodipodi:nodetypes="cccc" fill="#CD9B52" d="M664.94,139.178l-1.313,1.753
			c-0.662-0.117-0.537-0.559-0.376-0.97L664.94,139.178z"/>
		<path id="path4016_2_" sodipodi:nodetypes="cccc" fill="#CD9B52" d="M664.754,143.06l-1.315,1.752
			c-0.661-0.116-0.536-0.558-0.376-0.97L664.754,143.06z"/>
		<path id="path4020_2_" sodipodi:nodetypes="cccc" fill="#CD9B52" d="M666.318,145.312l-1.315,1.754
			c-0.661-0.116-0.536-0.559-0.375-0.971L666.318,145.312z"/>
		<path id="path4024_2_" sodipodi:nodetypes="cccc" fill="#CD9B52" d="M658.931,149.319l-1.312,1.753
			c-0.663-0.117-0.538-0.559-0.377-0.971L658.931,149.319z"/>
		<path id="path4028_2_" sodipodi:nodetypes="cccc" fill="#CD9B52" d="M659.118,142.807l-1.315,1.754
			c-0.661-0.116-0.535-0.559-0.374-0.971L659.118,142.807z"/>
		<path id="path4032_2_" sodipodi:nodetypes="cccc" fill="#CD9B52" d="M659.243,139.49l-1.314,1.751
			c-0.661-0.115-0.537-0.557-0.375-0.969L659.243,139.49z"/>
		<path id="path3988_2_" sodipodi:nodetypes="cccc" fill="#CD9B52" d="M660.264,143.853l-0.289,2.173
			c-0.634,0.222-0.74-0.225-0.802-0.663L660.264,143.853z"/>
		<path id="path4036_2_" sodipodi:nodetypes="cccc" fill="#CD9B52" d="M652.161,145.542l0.289,2.172
			c0.634,0.224,0.74-0.226,0.801-0.662L652.161,145.542z"/>
	</g>
</g>
<g>
	<ellipse fill="#82602E" cx="749.92" cy="138.974" rx="3.576" ry="0.776"/>
	<g>
		<path id="path2855_3_" sodipodi:nodetypes="ccssssscc" fill="#C8924B" d="M749.734,132.488h2.152c0,0,0.859,0,0.859-0.431
			s-0.859-2.581,0-3.012c0.862-0.431,1.722,0,1.722,0.86s0.431,2.582,0.431,3.443c0,0.86-1.189,1.291-2.152,1.291
			c-1.29,0-3.441,0.43-3.441,0.43L749.734,132.488z"/>
		<path id="path2857_3_" sodipodi:nodetypes="ccssssscc" fill="#C8924B" d="M749.734,133.35h-2.151c0,0-0.86,0-0.86-0.432
			c0-0.43,0.86-2.151,0-2.581c-0.861-0.431-1.722,0-1.722,0.859c0,0.861-0.431,2.153-0.431,3.014s1.19,1.29,2.152,1.29
			c1.291,0,3.441,0.431,3.441,0.431L749.734,133.35z"/>
		<path id="path2853_3_" sodipodi:nodetypes="csscc" fill="#DDA757" d="M748.044,138.697c0.476,0.276,0.217-12.155,0.399-12.551
			c0.36-0.782,1.936,0.013,2.151,1.721c0.207,1.639,1.067,10.72,0.793,10.83C750.969,139.235,748.878,139.673,748.044,138.697z"/>
		<path id="path3984_3_" sodipodi:nodetypes="cccc" fill="#CD9B52" d="M747.963,129.951l0.762,1.015
			c0.383-0.067,0.31-0.324,0.217-0.562L747.963,129.951z"/>
		<path id="path3990_3_" sodipodi:nodetypes="cccc" fill="#CD9B52" d="M745.1,131.002l0.761,1.014
			c0.384-0.066,0.312-0.321,0.218-0.56L745.1,131.002z"/>
		<path id="path3994_3_" sodipodi:nodetypes="cccc" fill="#CD9B52" d="M744.484,133.357l0.761,1.014
			c0.384-0.066,0.312-0.322,0.217-0.56L744.484,133.357z"/>
		<path id="path3998_3_" sodipodi:nodetypes="cccc" fill="#CD9B52" d="M746.078,134.808l0.762,1.015
			c0.383-0.067,0.311-0.324,0.217-0.562L746.078,134.808z"/>
		<path id="path4002_3_" sodipodi:nodetypes="cccc" fill="#CD9B52" d="M748.253,132.669l0.761,1.015
			c0.383-0.067,0.312-0.324,0.217-0.562L748.253,132.669z"/>
		<path id="path4006_3_" sodipodi:nodetypes="cccc" fill="#CD9B52" d="M748.288,136.547l0.762,1.014
			c0.383-0.068,0.311-0.323,0.217-0.562L748.288,136.547z"/>
		<path id="path4012_3_" sodipodi:nodetypes="cccc" fill="#CD9B52" d="M754.777,129.01l-0.761,1.014
			c-0.383-0.066-0.311-0.322-0.217-0.561L754.777,129.01z"/>
		<path id="path4016_3_" sodipodi:nodetypes="cccc" fill="#CD9B52" d="M754.668,131.256l-0.76,1.015
			c-0.383-0.068-0.311-0.323-0.218-0.562L754.668,131.256z"/>
		<path id="path4020_3_" sodipodi:nodetypes="cccc" fill="#CD9B52" d="M755.575,132.561l-0.762,1.015
			c-0.382-0.067-0.311-0.323-0.217-0.562L755.575,132.561z"/>
		<path id="path4024_3_" sodipodi:nodetypes="cccc" fill="#CD9B52" d="M751.299,134.881l-0.761,1.014
			c-0.384-0.067-0.311-0.323-0.218-0.562L751.299,134.881z"/>
		<path id="path4028_3_" sodipodi:nodetypes="cccc" fill="#CD9B52" d="M751.407,131.11l-0.763,1.016
			c-0.381-0.068-0.309-0.324-0.217-0.562L751.407,131.11z"/>
		<path id="path4032_3_" sodipodi:nodetypes="cccc" fill="#CD9B52" d="M751.479,129.19l-0.761,1.015
			c-0.383-0.068-0.311-0.323-0.217-0.562L751.479,129.19z"/>
		<path id="path3988_3_" sodipodi:nodetypes="cccc" fill="#CD9B52" d="M752.07,131.717l-0.167,1.256
			c-0.366,0.13-0.429-0.129-0.464-0.383L752.07,131.717z"/>
		<path id="path4036_3_" sodipodi:nodetypes="cccc" fill="#CD9B52" d="M747.38,132.693l0.168,1.258
			c0.367,0.128,0.428-0.13,0.464-0.384L747.38,132.693z"/>
	</g>
</g>
</svg>
