<?xml version="1.0" encoding="utf-8"?>
<!-- Generator: Adobe Illustrator 16.0.0, SVG Export Plug-In . SVG Version: 6.00 Build 0)  -->
<!DOCTYPE svg PUBLIC "-//W3C//DTD SVG 1.1//EN" "http://www.w3.org/Graphics/SVG/1.1/DTD/svg11.dtd">
<svg version="1.1" id="Layer_1" xmlns="http://www.w3.org/2000/svg" xmlns:xlink="http://www.w3.org/1999/xlink" x="0px" y="0px"
	 width="100px" height="97px" viewBox="0 0 100 97" enable-background="new 0 0 100 97" xml:space="preserve">
<g>
	<g>
		<path fill="#D25027" d="M81.204,10.746C70.226,2.227,55.654-1.842,40.76,0.797C13.63,5.604-4.235,30.754,0.871,56.976
			c3.696,18.999,18.454,33.288,36.611,37.921C53.966,90.21,90.284,72.717,81.204,10.746z"/>
		<path fill="#BB4226" d="M59.24,95.746c27.136-4.806,44.992-29.961,39.89-56.176c-2.297-11.829-8.901-21.824-17.926-28.824
			c9.08,61.971-27.239,79.464-43.722,84.15C44.386,96.66,51.768,97.073,59.24,95.746z"/>
	</g>
	<path fill="#BB4226" d="M64.098,69.011c-3.123,7.207-9.38,11.423-13.985,9.425c-4.603-1.994-5.808-9.444-2.686-16.646
		c3.121-7.207,9.385-11.424,13.986-9.428C66.017,54.354,67.218,61.808,64.098,69.011z"/>
	
		<ellipse transform="matrix(0.3975 -0.9176 0.9176 0.3975 -4.1542 96.817)" fill="#BB4226" cx="71.652" cy="51.572" rx="5.494" ry="3.513"/>
	<path fill="#BB4226" d="M64.851,44.424c-0.896,2.066-2.685,3.271-4.003,2.7c-1.316-0.573-1.663-2.703-0.769-4.769
		c0.891-2.062,2.685-3.27,4.003-2.701C65.4,40.23,65.744,42.366,64.851,44.424z"/>
</g>
</svg>
