<?xml version="1.0" encoding="utf-8"?>
<!-- Generator: Adobe Illustrator 16.0.0, SVG Export Plug-In . SVG Version: 6.00 Build 0)  -->
<!DOCTYPE svg PUBLIC "-//W3C//DTD SVG 1.1//EN" "http://www.w3.org/Graphics/SVG/1.1/DTD/svg11.dtd">
<svg version="1.1" id="Layer_1" xmlns="http://www.w3.org/2000/svg" xmlns:xlink="http://www.w3.org/1999/xlink" x="0px" y="0px"
	 width="100px" height="171px" viewBox="0 0 100 171" enable-background="new 0 0 100 171" xml:space="preserve">
<g>
	<g>
		<path fill="#D65727" d="M98.732,119.115c-1.189,6.229-2.861,11.928-4.816,15.854h-0.002c-1.955-3.927-3.627-9.626-4.816-15.854
			H98.732z"/>
		<path fill="#EEE4C5" d="M97.618,119.891c-0.67,3.51-1.611,6.723-2.714,8.934l0,0c-1.103-2.211-2.044-5.424-2.714-8.934H97.618z"/>
	</g>
	<g>
		<g>
			<path fill="#D65727" d="M1.123,119.115c1.189,6.229,2.86,11.928,4.816,15.854H5.94c1.956-3.927,3.627-9.626,4.817-15.854H1.123z"
				/>
			<path fill="#EEE4C5" d="M2.237,119.891c0.67,3.51,1.611,6.723,2.713,8.934h0.001c1.103-2.211,2.043-5.424,2.714-8.934H2.237z"/>
		</g>
		<g>
			<path fill="#D65727" d="M62.215,130.619c-3.01,15.764-7.24,30.188-12.19,40.124h-0.002c-4.95-9.937-9.18-24.36-12.19-40.124
				H62.215z"/>
			<path fill="#EEE4C5" d="M56.892,132.583c-1.695,8.882-4.077,17.011-6.867,22.606h-0.002c-2.79-5.596-5.171-13.725-6.867-22.606
				H56.892z"/>
		</g>
		<path fill="#D65727" d="M54.501,132.583c-1.105,5.789-2.659,11.087-4.477,14.735h-0.001c-1.818-3.648-3.371-8.946-4.477-14.735
			H54.501z"/>
		<g>
			<path fill="#952720" d="M50.023,128.479c-8.739,0-15.824-3.107-15.824-6.941v7.538c0,3.833,7.084,6.942,15.824,6.942
				s15.824-3.109,15.824-6.942v-7.538C65.848,125.371,58.763,128.479,50.023,128.479z"/>
			<g>
				<g>
					<g>
						<path fill="#D43927" d="M96.205,100.648l-29.01-21.739l-4.029,21.058c0,0,10.958-1.252,23.391,8.652
							c3.594,2.863,5.551,6.958,5.551,6.958L96.205,100.648z"/>
						<g>
							<g>
								<path fill="#D65727" d="M93.914,85.953h0.002C97.48,91.224,100,101.3,100,109.375c0,9.041-0.106,12.121-6.084,12.228h-0.002
									c-5.979-0.106-6.084-3.187-6.084-12.228C87.83,101.3,90.352,91.224,93.914,85.953z"/>
								<path fill="#D43927" d="M90.783,92.488c0.895-2.538,1.957-4.798,3.131-6.536h0.002c1.175,1.738,2.236,3.998,3.131,6.536
									H90.783z"/>
								<path fill="#952720" d="M99.576,117.569c-0.606,2.838-2.08,3.97-5.66,4.033h-0.002c-3.58-0.063-5.054-1.195-5.66-4.033
									H99.576z"/>
							</g>
						</g>
					</g>
					<g>
						<path fill="#D43927" d="M3.795,100.648l29.01-21.739l4.028,21.058c0,0-10.958-1.252-23.391,8.652
							c-3.593,2.863-5.551,6.958-5.551,6.958L3.795,100.648z"/>
						<g>
							<g>
								<path fill="#D65727" d="M6.086,85.953L6.086,85.953C2.521,91.224,0,101.3,0,109.375c0,9.041,0.106,12.121,6.085,12.228
									h0.001c5.978-0.106,6.084-3.187,6.084-12.228C12.17,101.3,9.65,91.224,6.086,85.953z"/>
								<path fill="#D43927" d="M9.218,92.488c-0.896-2.538-1.957-4.798-3.132-6.536H6.085C4.91,87.69,3.849,89.95,2.953,92.488
									H9.218z"/>
								<path fill="#952720" d="M0.424,117.569c0.607,2.838,2.081,3.97,5.661,4.033h0.001c3.58-0.063,5.054-1.195,5.661-4.033H0.424
									z"/>
							</g>
						</g>
					</g>
				</g>
				<path fill="#952720" d="M74.531,84.408l-7.336-5.499l-4.029,21.058c0,0,4.005-0.453,9.915,1.369
					C74.113,96.945,74.434,91.369,74.531,84.408z"/>
				<path fill="#952720" d="M25.097,84.687c0.103,6.892,0.435,12.409,1.474,16.76c6.101-1.95,10.264-1.479,10.264-1.479
					l-4.028-21.058L25.097,84.687z"/>
			</g>
			<path fill="#EEE4C5" d="M50.025,0h-0.003C38.484,19.188,30.326,55.875,30.326,85.276c0,32.916,0.345,44.128,19.697,44.515h0.003
				c19.352-0.387,19.696-11.6,19.696-44.515C69.722,55.875,61.562,19.188,50.025,0z"/>
			<path fill="#D65727" d="M30.33,89.864c0.072,29.376,1.269,39.56,19.692,39.927h0.003c18.424-0.367,19.619-10.551,19.691-39.927
				H30.33z"/>
			<g>
				<circle fill="#952720" cx="50.024" cy="64.896" r="11.347"/>
				<circle fill="#D65727" cx="50.023" cy="64.896" r="8.56"/>
				<path fill="#EEE4C5" d="M48.811,60.286c4.363,0,7.9,3.537,7.9,7.9c0,0.131-0.004,0.262-0.011,0.392
					c0.565-1.058,0.888-2.267,0.888-3.552c0-4.169-3.379-7.548-7.548-7.548c-3.521,0-6.478,2.41-7.312,5.67
					C44.176,61.399,46.363,60.286,48.811,60.286z"/>
			</g>
			<path fill="#D65727" d="M60.162,23.793C57.264,14.553,53.828,6.325,50.025,0h-0.003c-3.804,6.325-7.24,14.553-10.138,23.793
				H60.162z"/>
			<path fill="#E76A43" d="M49.776,5.662h0.004c3.253,4.038,6.304,8.853,9.097,14.21C56.267,12.228,53.281,5.415,50.025,0h-0.003
				c-2.88,4.789-5.548,10.669-7.933,17.253C44.49,12.94,47.062,9.029,49.776,5.662z"/>
			<path fill="#D43927" d="M31.698,115.111c1.964,10.332,6.735,14.449,18.325,14.68h0.003c11.589-0.23,16.359-4.348,18.324-14.68
				H31.698z"/>
		</g>
	</g>
</g>
</svg>
