<?xml version="1.0" encoding="utf-8"?>
<!-- Generator: Adobe Illustrator 16.0.0, SVG Export Plug-In . SVG Version: 6.00 Build 0)  -->
<!DOCTYPE svg PUBLIC "-//W3C//DTD SVG 1.1//EN" "http://www.w3.org/Graphics/SVG/1.1/DTD/svg11.dtd">
<svg version="1.1" id="Layer_1" xmlns="http://www.w3.org/2000/svg" xmlns:xlink="http://www.w3.org/1999/xlink" x="0px" y="0px"
	 width="100px" height="171px" viewBox="0 0 100 171" enable-background="new 0 0 100 171" xml:space="preserve">
<g display="none">
	<g display="inline">
		<path fill="#D65727" d="M98.732,119.115c-1.189,6.229-2.861,11.928-4.816,15.854h-0.002c-1.955-3.927-3.627-9.626-4.816-15.854
			H98.732z"/>
		<path fill="#EEE4C5" d="M97.618,119.891c-0.67,3.51-1.611,6.723-2.714,8.934l0,0c-1.103-2.211-2.044-5.424-2.714-8.934H97.618z"/>
	</g>
	<g display="inline">
		<g>
			<path fill="#D65727" d="M1.123,119.115c1.189,6.229,2.86,11.928,4.816,15.854H5.94c1.956-3.927,3.627-9.626,4.817-15.854H1.123z"
				/>
			<path fill="#EEE4C5" d="M2.237,119.891c0.67,3.51,1.611,6.723,2.713,8.934h0.001c1.103-2.211,2.043-5.424,2.714-8.934H2.237z"/>
		</g>
		<g>
			<path fill="#D65727" d="M62.215,130.619c-3.01,15.764-7.24,30.188-12.19,40.124h-0.002c-4.95-9.937-9.18-24.36-12.19-40.124
				H62.215z"/>
			<path fill="#EEE4C5" d="M56.892,132.583c-1.695,8.882-4.077,17.011-6.867,22.606h-0.002c-2.79-5.596-5.171-13.725-6.867-22.606
				H56.892z"/>
		</g>
		<path fill="#D65727" d="M54.501,132.583c-1.105,5.789-2.659,11.087-4.477,14.735h-0.001c-1.818-3.648-3.371-8.946-4.477-14.735
			H54.501z"/>
		<g>
			<path fill="#952720" d="M50.023,128.479c-8.739,0-15.824-3.107-15.824-6.941v7.538c0,3.833,7.084,6.942,15.824,6.942
				s15.824-3.109,15.824-6.942v-7.538C65.848,125.371,58.763,128.479,50.023,128.479z"/>
			<g>
				<g>
					<g>
						<path fill="#D43927" d="M96.205,100.648l-29.01-21.739l-4.029,21.058c0,0,10.958-1.252,23.391,8.652
							c3.594,2.863,5.551,6.958,5.551,6.958L96.205,100.648z"/>
						<g>
							<g>
								<path fill="#D65727" d="M93.914,85.953h0.002C97.48,91.224,100,101.3,100,109.375c0,9.041-0.106,12.121-6.084,12.228h-0.002
									c-5.979-0.106-6.084-3.187-6.084-12.228C87.83,101.3,90.352,91.224,93.914,85.953z"/>
								<path fill="#D43927" d="M90.783,92.488c0.895-2.538,1.957-4.798,3.131-6.536h0.002c1.175,1.738,2.236,3.998,3.131,6.536
									H90.783z"/>
								<path fill="#952720" d="M99.576,117.569c-0.606,2.838-2.08,3.97-5.66,4.033h-0.002c-3.58-0.063-5.054-1.195-5.66-4.033
									H99.576z"/>
							</g>
						</g>
					</g>
					<g>
						<path fill="#D43927" d="M3.795,100.648l29.01-21.739l4.028,21.058c0,0-10.958-1.252-23.391,8.652
							c-3.593,2.863-5.551,6.958-5.551,6.958L3.795,100.648z"/>
						<g>
							<g>
								<path fill="#D65727" d="M6.086,85.953L6.086,85.953C2.521,91.224,0,101.3,0,109.375c0,9.041,0.106,12.121,6.085,12.228
									h0.001c5.978-0.106,6.084-3.187,6.084-12.228C12.17,101.3,9.65,91.224,6.086,85.953z"/>
								<path fill="#D43927" d="M9.218,92.488c-0.896-2.538-1.957-4.798-3.132-6.536H6.085C4.91,87.69,3.849,89.95,2.953,92.488
									H9.218z"/>
								<path fill="#952720" d="M0.424,117.569c0.607,2.838,2.081,3.97,5.661,4.033h0.001c3.58-0.063,5.054-1.195,5.661-4.033H0.424
									z"/>
							</g>
						</g>
					</g>
				</g>
				<path fill="#952720" d="M74.531,84.408l-7.336-5.499l-4.029,21.058c0,0,4.005-0.453,9.915,1.369
					C74.113,96.945,74.434,91.369,74.531,84.408z"/>
				<path fill="#952720" d="M25.097,84.687c0.103,6.892,0.435,12.409,1.474,16.76c6.101-1.95,10.264-1.479,10.264-1.479
					l-4.028-21.058L25.097,84.687z"/>
			</g>
			<path fill="#EEE4C5" d="M50.025,0h-0.003C38.484,19.188,30.326,55.875,30.326,85.276c0,32.916,0.345,44.128,19.697,44.515h0.003
				c19.352-0.387,19.696-11.6,19.696-44.515C69.722,55.875,61.562,19.188,50.025,0z"/>
			<path fill="#D65727" d="M30.33,89.864c0.072,29.376,1.269,39.56,19.692,39.927h0.003c18.424-0.367,19.619-10.551,19.691-39.927
				H30.33z"/>
			<g>
				<circle fill="#952720" cx="50.024" cy="64.896" r="11.347"/>
				<circle fill="#D65727" cx="50.023" cy="64.896" r="8.56"/>
				<path fill="#EEE4C5" d="M48.811,60.286c4.363,0,7.9,3.537,7.9,7.9c0,0.131-0.004,0.262-0.011,0.392
					c0.565-1.058,0.888-2.267,0.888-3.552c0-4.169-3.379-7.548-7.548-7.548c-3.521,0-6.478,2.41-7.312,5.67
					C44.176,61.399,46.363,60.286,48.811,60.286z"/>
			</g>
			<path fill="#D65727" d="M60.162,23.793C57.264,14.553,53.828,6.325,50.025,0h-0.003c-3.804,6.325-7.24,14.553-10.138,23.793
				H60.162z"/>
			<path fill="#E76A43" d="M49.776,5.662h0.004c3.253,4.038,6.304,8.853,9.097,14.21C56.267,12.228,53.281,5.415,50.025,0h-0.003
				c-2.88,4.789-5.548,10.669-7.933,17.253C44.49,12.94,47.062,9.029,49.776,5.662z"/>
			<path fill="#D43927" d="M31.698,115.111c1.964,10.332,6.735,14.449,18.325,14.68h0.003c11.589-0.23,16.359-4.348,18.324-14.68
				H31.698z"/>
		</g>
	</g>
</g>
<g display="none">
	<ellipse display="inline" fill="#82602E" cx="50.21" cy="127.363" rx="18.246" ry="7.059"/>
	<ellipse display="inline" fill="#82602E" cx="92.683" cy="118.211" rx="7.317" ry="2.83"/>
	<ellipse display="inline" fill="#82602E" cx="7.317" cy="118.211" rx="7.317" ry="2.83"/>
	<path display="inline" fill="#952720" d="M50.233,125.49c-8.536,0-15.456-3.035-15.456-6.781v7.363c0,3.744,6.919,6.78,15.456,6.78
		c8.536,0,15.457-3.036,15.457-6.78v-7.363C65.689,122.455,58.769,125.49,50.233,125.49z"/>
	<g display="inline">
		<g>
			<g>
				<path fill="#D43927" d="M95.34,98.307L67.005,77.073L63.07,97.641c0,0,10.703-1.223,22.847,8.451
					c3.51,2.797,5.421,6.797,5.421,6.797L95.34,98.307z"/>
				<g>
					<g>
						<path fill="#D65727" d="M93.104,83.953L93.104,83.953c3.482,5.148,5.943,14.99,5.943,22.878c0,8.83-0.104,11.839-5.943,11.942
							l0,0c-5.84-0.104-5.943-3.112-5.943-11.942C87.16,98.943,89.622,89.102,93.104,83.953z"/>
						<path fill="#D43927" d="M90.044,90.337c0.874-2.479,1.911-4.687,3.06-6.384l0,0c1.148,1.697,2.185,3.904,3.059,6.384H90.044z"
							/>
						<path fill="#952720" d="M98.633,114.834c-0.592,2.771-2.032,3.877-5.529,3.939l0,0c-3.498-0.062-4.938-1.168-5.529-3.939
							H98.633z"/>
					</g>
				</g>
			</g>
			<g>
				<path fill="#D43927" d="M5.081,98.307l28.335-21.233l3.934,20.567c0,0-10.703-1.223-22.847,8.451
					c-3.51,2.797-5.422,6.797-5.422,6.797L5.081,98.307z"/>
				<g>
					<g>
						<path fill="#D65727" d="M7.318,83.953H7.316c-3.481,5.148-5.943,14.99-5.943,22.878c0,8.83,0.104,11.839,5.943,11.942h0.001
							c5.839-0.104,5.943-3.112,5.943-11.942C13.261,98.943,10.799,89.102,7.318,83.953z"/>
						<path fill="#D43927" d="M10.376,90.337c-0.875-2.479-1.912-4.687-3.059-6.384H7.316c-1.147,1.697-2.185,3.904-3.059,6.384
							H10.376z"/>
						<path fill="#952720" d="M1.787,114.834c0.593,2.771,2.032,3.877,5.529,3.939h0.001c3.496-0.062,4.936-1.168,5.529-3.939H1.787
							z"/>
					</g>
				</g>
			</g>
		</g>
		<path fill="#952720" d="M74.171,82.444l-7.166-5.371L63.07,97.641c0,0,3.911-0.442,9.684,1.338
			C73.762,94.689,74.075,89.244,74.171,82.444z"/>
		<path fill="#952720" d="M25.886,82.717c0.101,6.73,0.425,12.12,1.439,16.369c5.959-1.905,10.025-1.445,10.025-1.445l-3.934-20.567
			L25.886,82.717z"/>
	</g>
	<path display="inline" fill="#EEE4C5" d="M50.235,0h-0.003c-11.27,18.742-19.239,54.575-19.239,83.292
		c0,32.149,0.337,43.103,19.239,43.479h0.003c18.902-0.377,19.238-11.33,19.238-43.479C69.473,54.575,61.504,18.742,50.235,0z"/>
	<path display="inline" fill="#D65727" d="M30.998,87.773c0.071,28.693,1.239,38.639,19.234,38.998h0.003
		c17.996-0.359,19.164-10.305,19.234-38.998H30.998z"/>
	<g display="inline">
		<circle fill="#952720" cx="50.233" cy="63.386" r="11.083"/>
		<circle fill="#D65727" cx="50.233" cy="63.386" r="8.361"/>
		<path fill="#EEE4C5" d="M49.049,58.883c4.261,0,7.716,3.455,7.716,7.716c0,0.128-0.004,0.256-0.011,0.382
			c0.553-1.033,0.867-2.214,0.867-3.469c0-4.072-3.301-7.373-7.373-7.373c-3.439,0-6.327,2.354-7.142,5.539
			C44.521,59.971,46.658,58.883,49.049,58.883z"/>
	</g>
	<path display="inline" fill="#D65727" d="M60.136,23.24C57.305,14.214,53.949,6.178,50.235,0h-0.003
		c-3.716,6.178-7.071,14.214-9.902,23.24H60.136z"/>
	<path display="inline" fill="#E76A43" d="M49.991,5.53h0.004c3.177,3.943,6.158,8.647,8.886,13.88
		C56.33,11.943,53.415,5.289,50.235,0h-0.003c-2.813,4.677-5.419,10.421-7.748,16.852C44.828,12.639,47.34,8.819,49.991,5.53z"/>
	<path display="inline" fill="#D43927" d="M32.334,112.433c1.918,10.093,6.578,14.113,17.898,14.339h0.003
		c11.319-0.226,15.98-4.246,17.898-14.339H32.334z"/>
</g>
<g>
	<path fill="#D65727" d="M1.123,119.115c1.189,6.229,2.86,11.928,4.816,15.854H5.94c1.956-3.927,3.627-9.626,4.817-15.854H1.123z"/>
	<path fill="#EEE4C5" d="M2.237,119.891c0.67,3.51,1.611,6.723,2.713,8.934h0.001c1.103-2.211,2.043-5.424,2.714-8.934H2.237z"/>
</g>
<g>
	<path fill="#D65727" d="M98.732,119.115c-1.189,6.229-2.861,11.928-4.816,15.854h-0.002c-1.955-3.927-3.627-9.626-4.816-15.854
		H98.732z"/>
	<path fill="#EEE4C5" d="M97.618,119.891c-0.67,3.51-1.611,6.723-2.714,8.934l0,0c-1.103-2.211-2.044-5.424-2.714-8.934H97.618z"/>
</g>
<g>
	<path fill="#EEE4C5" d="M62.215,130.619c-3.01,15.764-7.24,30.188-12.19,40.124h-0.002c-4.95-9.937-9.18-24.36-12.19-40.124H62.215
		z"/>
	<path fill="#D65727" d="M56.892,132.583c-1.695,8.882-4.077,17.011-6.867,22.606h-0.002c-2.79-5.596-5.171-13.725-6.867-22.606
		H56.892z"/>
</g>
<g>
	<path fill="#952720" d="M50.023,128.479c-8.739,0-15.824-3.107-15.824-6.941v7.538c0,3.833,7.084,6.941,15.824,6.941
		s15.824-3.108,15.824-6.941v-7.538C65.848,125.371,58.763,128.479,50.023,128.479z"/>
	<g>
		<g>
			<g>
				<path fill="#D43927" d="M96.205,100.648l-29.01-21.739l-4.029,21.058c0,0,10.958-1.252,23.391,8.652
					c3.594,2.863,5.551,6.958,5.551,6.958L96.205,100.648z"/>
				<g>
					<g>
						<path fill="#D65727" d="M93.914,85.953h0.002C97.48,91.224,100,101.3,100,109.375c0,9.041-0.106,12.121-6.084,12.228h-0.002
							c-5.979-0.106-6.084-3.187-6.084-12.228C87.83,101.3,90.352,91.224,93.914,85.953z"/>
						<path fill="#D43927" d="M90.783,92.488c0.895-2.539,1.957-4.798,3.131-6.536h0.002c1.175,1.738,2.236,3.997,3.131,6.536
							H90.783z"/>
						<path fill="#952720" d="M99.576,117.569c-0.606,2.838-2.08,3.97-5.66,4.033h-0.002c-3.58-0.063-5.054-1.195-5.66-4.033H99.576
							z"/>
					</g>
				</g>
			</g>
			<g>
				<path fill="#D43927" d="M3.795,100.648l29.01-21.739l4.028,21.058c0,0-10.958-1.252-23.391,8.652
					c-3.593,2.863-5.551,6.958-5.551,6.958L3.795,100.648z"/>
				<g>
					<g>
						<path fill="#D65727" d="M6.086,85.953L6.086,85.953C2.521,91.224,0,101.3,0,109.375c0,9.041,0.106,12.121,6.085,12.228h0.001
							c5.978-0.106,6.084-3.187,6.084-12.228C12.17,101.3,9.65,91.224,6.086,85.953z"/>
						<path fill="#D43927" d="M9.218,92.488c-0.896-2.539-1.957-4.798-3.132-6.536H6.085c-1.175,1.738-2.236,3.997-3.132,6.536
							H9.218z"/>
						<path fill="#952720" d="M0.424,117.569c0.607,2.838,2.081,3.97,5.661,4.033h0.001c3.58-0.063,5.054-1.195,5.661-4.033H0.424z"
							/>
					</g>
				</g>
			</g>
		</g>
		<path fill="#952720" d="M74.531,84.408l-7.336-5.499l-4.029,21.058c0,0,4.005-0.453,9.915,1.369
			C74.113,96.945,74.434,91.369,74.531,84.408z"/>
		<path fill="#952720" d="M25.097,84.687c0.103,6.892,0.435,12.409,1.474,16.76c6.101-1.95,10.264-1.479,10.264-1.479l-4.028-21.058
			L25.097,84.687z"/>
	</g>
	<path fill="#EEE4C5" d="M50.025,0h-0.003C38.484,19.188,30.326,55.875,30.326,85.276c0,32.916,0.345,44.128,19.697,44.515h0.003
		c19.352-0.387,19.696-11.6,19.696-44.515C69.722,55.875,61.562,19.188,50.025,0z"/>
	<path fill="#D65727" d="M30.33,89.864c0.072,29.376,1.269,39.56,19.692,39.927h0.003c18.424-0.367,19.619-10.551,19.691-39.927
		H30.33z"/>
	<g>
		<circle fill="#952720" cx="50.024" cy="64.896" r="11.347"/>
		<circle fill="#D65727" cx="50.023" cy="64.896" r="8.56"/>
		<path fill="#EEE4C5" d="M48.811,60.286c4.363,0,7.9,3.537,7.9,7.899c0,0.131-0.004,0.262-0.011,0.392
			c0.565-1.058,0.888-2.267,0.888-3.552c0-4.169-3.379-7.548-7.548-7.548c-3.521,0-6.478,2.41-7.312,5.67
			C44.176,61.399,46.363,60.286,48.811,60.286z"/>
	</g>
	<path fill="#D65727" d="M60.162,23.793C57.264,14.553,53.828,6.325,50.025,0h-0.003c-3.804,6.325-7.24,14.553-10.138,23.793H60.162
		z"/>
	<path fill="#E76A43" d="M49.776,5.661h0.004c3.253,4.038,6.304,8.854,9.097,14.211C56.267,12.227,53.281,5.415,50.025,0h-0.003
		c-2.88,4.789-5.548,10.669-7.933,17.253C44.49,12.94,47.062,9.029,49.776,5.661z"/>
	<path fill="#D43927" d="M31.698,115.111c1.964,10.332,6.735,14.449,18.325,14.68h0.003c11.589-0.23,16.359-4.348,18.324-14.68
		H31.698z"/>
</g>
</svg>
