<?xml version="1.0" encoding="utf-8"?>
<!-- Generator: Adobe Illustrator 16.0.0, SVG Export Plug-In . SVG Version: 6.00 Build 0)  -->
<!DOCTYPE svg PUBLIC "-//W3C//DTD SVG 1.1//EN" "http://www.w3.org/Graphics/SVG/1.1/DTD/svg11.dtd">
<svg version="1.1" id="Layer_1" xmlns="http://www.w3.org/2000/svg" xmlns:xlink="http://www.w3.org/1999/xlink" x="0px" y="0px"
	 width="400px" height="171px" viewBox="0 0 400 171" enable-background="new 0 0 400 171" xml:space="preserve">
<g opacity="0.5">
	<path fill="#D65727" d="M101.123,119.114c1.188,6.229,2.859,11.93,4.816,15.856l0,0c1.957-3.928,3.627-9.628,4.816-15.856H101.123z
		"/>
	<path fill="#D65727" d="M102.236,119.891c0.875,4.582,2.104,8.777,3.543,11.664h0.002c1.439-2.887,2.668-7.082,3.543-11.664
		H102.236z"/>
	<path fill="#EFE5C7" d="M100.963,113.676c1.189,6.229,2.861,11.928,4.816,15.854h0.001c1.956-3.926,3.628-9.625,4.817-15.854
		H100.963z"/>
</g>
<g opacity="0.5">
	<path fill="#D65727" d="M198.731,119.114c-1.189,6.229-2.86,11.93-4.815,15.856h-0.001c-1.956-3.928-3.627-9.628-4.817-15.856
		H198.731z"/>
	<path fill="#D65727" d="M197.618,119.891c-0.825,4.324-1.985,8.283-3.344,11.006l0,0c-1.358-2.723-2.519-6.682-3.345-11.006
		H197.618z"/>
	<path fill="#EFE5C7" d="M199.092,113.609c-1.189,6.229-2.861,11.93-4.817,15.854l0,0c-1.957-3.926-3.628-9.627-4.817-15.854
		H199.092z"/>
</g>
<g opacity="0.5">
	<path fill="#D65727" d="M162.215,130.619c-3.01,15.764-7.24,30.188-12.189,40.124h-0.002c-4.951-9.938-9.182-24.36-12.191-40.124
		H162.215L162.215,130.619z"/>
	<path fill="#D65727" d="M161.059,125.725c-2.725,14.271-6.551,27.334-11.033,36.324h-0.004c-4.482-8.99-8.311-22.053-11.035-36.324
		H161.059z"/>
</g>
<path opacity="0.5" fill="#EFE5C7" d="M160.365,121.537c-2.52,13.201-6.061,25.281-10.207,33.598h-0.002
	c-4.146-8.314-7.687-20.396-10.207-33.598H160.365L160.365,121.537z"/>
<g>
	<path fill="#962820" d="M150.023,128.479c-8.739,0-15.824-3.106-15.824-6.94v7.538c0,3.833,7.085,6.941,15.824,6.941
		c8.738,0,15.824-3.108,15.824-6.941v-7.538C165.848,125.371,158.762,128.479,150.023,128.479z"/>
	<g>
		<g>
			<g>
				<path fill="#D43A27" d="M196.204,100.648l-29.009-21.739l-4.029,21.058c0,0,10.958-1.252,23.391,8.652
					c3.594,2.863,5.551,6.957,5.551,6.957L196.204,100.648z"/>
				<g>
					<g>
						<path fill="#D65727" d="M193.914,85.953h0.002c3.564,5.271,6.084,15.348,6.084,23.423c0,9.04-0.105,12.12-6.084,12.228h-0.002
							c-5.978-0.106-6.084-3.188-6.084-12.228C187.83,101.301,190.351,91.225,193.914,85.953z"/>
						<path fill="#D43A27" d="M190.783,92.488c0.896-2.539,1.956-4.799,3.131-6.535h0.002c1.175,1.736,2.236,3.997,3.131,6.535
							H190.783z"/>
						<path fill="#962820" d="M199.576,117.57c-0.606,2.838-2.08,3.969-5.66,4.033h-0.002c-3.58-0.064-5.054-1.195-5.66-4.033
							H199.576z"/>
					</g>
				</g>
			</g>
			<g>
				<path fill="#D43A27" d="M103.795,100.648l29.011-21.739l4.028,21.058c0,0-10.957-1.252-23.391,8.652
					c-3.594,2.863-5.551,6.957-5.551,6.957L103.795,100.648z"/>
				<g>
					<g>
						<path fill="#D65727" d="M106.086,85.953h-0.002C102.52,91.225,100,101.301,100,109.376c0,9.04,0.106,12.12,6.084,12.228h0.002
							c5.978-0.106,6.084-3.188,6.084-12.228C112.17,101.301,109.65,91.225,106.086,85.953z"/>
						<path fill="#D43A27" d="M109.217,92.488c-0.895-2.539-1.956-4.799-3.131-6.535h-0.001c-1.175,1.736-2.236,3.997-3.132,6.535
							H109.217z"/>
						<path fill="#962820" d="M100.424,117.57c0.606,2.838,2.08,3.969,5.66,4.033h0.002c3.58-0.064,5.053-1.195,5.66-4.033H100.424z
							"/>
					</g>
				</g>
			</g>
		</g>
		<path fill="#962820" d="M174.531,84.408l-7.336-5.499l-4.029,21.057c0,0,4.004-0.452,9.914,1.37
			C174.112,96.943,174.434,91.369,174.531,84.408z"/>
		<path fill="#962820" d="M125.097,84.687c0.104,6.89,0.435,12.409,1.474,16.758c6.101-1.949,10.264-1.479,10.264-1.479
			l-4.029-21.058L125.097,84.687z"/>
	</g>
	<path fill="#EFE5C7" d="M150.025,0h-0.004c-11.537,19.188-19.696,55.876-19.696,85.276c0,32.916,0.345,44.128,19.696,44.516h0.004
		c19.352-0.388,19.695-11.601,19.695-44.516C169.721,55.876,161.562,19.188,150.025,0z"/>
	<path fill="#D65727" d="M130.33,89.865c0.072,29.375,1.268,39.559,19.691,39.927h0.004c18.423-0.368,19.619-10.552,19.691-39.927
		H130.33L130.33,89.865z"/>
	<g>
		<circle fill="#962820" cx="150.023" cy="64.896" r="11.347"/>
		<circle fill="#D65727" cx="150.023" cy="64.896" r="8.56"/>
		<path fill="#EFE5C7" d="M148.811,60.286c4.363,0,7.9,3.538,7.9,7.9c0,0.131-0.004,0.262-0.012,0.391
			c0.566-1.058,0.889-2.267,0.889-3.551c0-4.169-3.379-7.549-7.549-7.549c-3.521,0-6.478,2.41-7.312,5.67
			C144.176,61.399,146.363,60.286,148.811,60.286z"/>
	</g>
	<path fill="#D65727" d="M160.162,23.793c-2.898-9.24-6.334-17.468-10.137-23.793h-0.004c-3.804,6.325-7.239,14.553-10.137,23.793
		H160.162z"/>
	<path fill="#E86A44" d="M149.775,5.662h0.005c3.253,4.037,6.304,8.853,9.097,14.21c-2.611-7.645-5.596-14.458-8.852-19.872h-0.002
		c-2.881,4.789-5.549,10.669-7.934,17.253C144.49,12.939,147.061,9.028,149.775,5.662z"/>
	<path fill="#D43A27" d="M131.697,115.111c1.965,10.332,6.735,14.449,18.324,14.681h0.004c11.588-0.231,16.359-4.349,18.324-14.681
		H131.697z"/>
</g>
<g opacity="0.5">
	<path fill="#EFE5C7" d="M201.123,119.114c1.189,6.229,2.861,11.93,4.816,15.856l0,0c1.957-3.928,3.627-9.628,4.817-15.856H201.123z
		"/>
	<path fill="#D65727" d="M202.236,119.891c0.875,4.582,2.104,8.777,3.543,11.664h0.002c1.439-2.887,2.668-7.082,3.543-11.664
		H202.236z"/>
	<path fill="#EFE5C7" d="M200.963,111.188c1.189,6.229,2.861,11.929,4.816,15.854l0,0c1.957-3.927,3.629-9.626,4.818-15.854H200.963
		z"/>
</g>
<g opacity="0.5">
	<path fill="#EFE5C7" d="M298.732,119.114c-1.189,6.229-2.86,11.93-4.816,15.856h-0.002c-1.955-3.928-3.627-9.628-4.816-15.856
		H298.732z"/>
	<path fill="#D65727" d="M297.618,119.891c-0.825,4.324-1.985,8.283-3.345,11.006l0,0c-1.357-2.723-2.519-6.682-3.344-11.006
		H297.618z"/>
	<path fill="#EFE5C7" d="M299.092,110.291c-1.189,6.229-2.861,11.93-4.816,15.855h-0.002c-1.955-3.928-3.627-9.627-4.815-15.855
		H299.092z"/>
</g>
<g opacity="0.5">
	<path fill="#EFE5C7" d="M262.214,130.619c-3.01,15.764-7.239,30.188-12.188,40.124h-0.002c-4.951-9.938-9.181-24.36-12.19-40.124
		H262.214L262.214,130.619z"/>
	<path fill="#D65727" d="M261.061,125.725c-2.726,14.271-6.552,27.334-11.035,36.324h-0.002c-4.483-8.99-8.312-22.053-11.035-36.324
		H261.061z"/>
</g>
<path opacity="0.5" fill="#EFE5C7" d="M256.977,129.792c-1.717,8.991-4.127,17.222-6.951,22.885h-0.002
	c-2.823-5.663-5.234-13.894-6.953-22.885H256.977z"/>
<g>
	<path fill="#962820" d="M250.023,128.479c-8.739,0-15.823-3.106-15.823-6.94v7.538c0,3.833,7.084,6.941,15.823,6.941
		c8.738,0,15.824-3.108,15.824-6.941v-7.538C265.848,125.371,258.764,128.479,250.023,128.479z"/>
	<g>
		<g>
			<g>
				<path fill="#D43A27" d="M296.204,100.648l-29.009-21.739l-4.028,21.058c0,0,10.957-1.252,23.392,8.652
					c3.594,2.863,5.549,6.957,5.549,6.957L296.204,100.648z"/>
				<g>
					<g>
						<path fill="#D65727" d="M293.914,85.953L293.914,85.953c3.566,5.271,6.086,15.348,6.086,23.423
							c0,9.04-0.105,12.12-6.085,12.228h-0.001c-5.979-0.106-6.084-3.188-6.084-12.228
							C287.83,101.301,290.352,91.225,293.914,85.953z"/>
						<path fill="#D43A27" d="M290.783,92.488c0.896-2.539,1.957-4.799,3.131-6.535h0.001c1.176,1.736,2.237,3.997,3.132,6.535
							H290.783z"/>
						<path fill="#962820" d="M299.577,117.57c-0.606,2.838-2.081,3.969-5.662,4.033h-0.001c-3.58-0.064-5.055-1.195-5.661-4.033
							H299.577z"/>
					</g>
				</g>
			</g>
			<g>
				<path fill="#D43A27" d="M203.795,100.648l29.012-21.739l4.026,21.058c0,0-10.958-1.252-23.392,8.652
					c-3.592,2.863-5.551,6.957-5.551,6.957L203.795,100.648z"/>
				<g>
					<g>
						<path fill="#D65727" d="M206.086,85.953h-0.002c-3.562,5.271-6.084,15.348-6.084,23.423c0,9.04,0.105,12.12,6.084,12.228
							h0.002c5.979-0.106,6.084-3.188,6.084-12.228C212.17,101.301,209.65,91.225,206.086,85.953z"/>
						<path fill="#D43A27" d="M209.218,92.488c-0.896-2.539-1.956-4.799-3.132-6.535h-0.002c-1.175,1.736-2.236,3.997-3.131,6.535
							H209.218z"/>
						<path fill="#962820" d="M200.424,117.57c0.605,2.838,2.08,3.969,5.66,4.033h0.002c3.579-0.064,5.053-1.195,5.66-4.033H200.424
							z"/>
					</g>
				</g>
			</g>
		</g>
		<path fill="#962820" d="M274.531,84.408l-7.338-5.499l-4.027,21.057c0,0,4.004-0.452,9.915,1.37
			C274.113,96.943,274.434,91.369,274.531,84.408z"/>
		<path fill="#962820" d="M225.098,84.687c0.103,6.89,0.435,12.409,1.473,16.758c6.102-1.949,10.265-1.479,10.265-1.479
			l-4.028-21.058L225.098,84.687z"/>
	</g>
	<path fill="#EFE5C7" d="M250.025,0h-0.004c-11.537,19.188-19.696,55.876-19.696,85.276c0,32.916,0.345,44.128,19.696,44.516h0.004
		c19.352-0.388,19.695-11.601,19.695-44.516C269.723,55.876,261.562,19.188,250.025,0z"/>
	<path fill="#D65727" d="M230.33,89.865c0.072,29.375,1.27,39.559,19.691,39.927h0.004c18.424-0.368,19.619-10.552,19.69-39.927
		H230.33L230.33,89.865z"/>
	<g>
		<circle fill="#962820" cx="250.023" cy="64.896" r="11.347"/>
		<circle fill="#D65727" cx="250.023" cy="64.896" r="8.56"/>
		<path fill="#EFE5C7" d="M248.811,60.286c4.364,0,7.9,3.538,7.9,7.9c0,0.131-0.004,0.262-0.011,0.391
			c0.565-1.058,0.889-2.267,0.889-3.551c0-4.169-3.38-7.549-7.549-7.549c-3.522,0-6.478,2.41-7.313,5.67
			C244.175,61.399,246.363,60.286,248.811,60.286z"/>
	</g>
	<path fill="#D65727" d="M260.163,23.793c-2.897-9.24-6.335-17.468-10.138-23.793h-0.004c-3.804,6.325-7.239,14.553-10.138,23.793
		H260.163z"/>
	<path fill="#E86A44" d="M249.775,5.662h0.004c3.254,4.037,6.305,8.853,9.098,14.21c-2.609-7.645-5.596-14.458-8.852-19.872h-0.004
		c-2.879,4.789-5.549,10.669-7.933,17.253C244.49,12.939,247.062,9.028,249.775,5.662z"/>
	<path fill="#D43A27" d="M231.698,115.111c1.963,10.332,6.733,14.449,18.323,14.681h0.004c11.589-0.231,16.359-4.349,18.324-14.681
		H231.698z"/>
</g>
<g opacity="0.5">
	<path fill="#EFE5C7" d="M301.123,119.115c1.189,6.229,2.859,11.93,4.816,15.855l0,0c1.957-3.927,3.627-9.628,4.816-15.855H301.123z
		"/>
	<path fill="#D65727" d="M302.799,119.893c0.67,3.508,1.611,6.722,2.713,8.933h0.002c1.103-2.211,2.043-5.423,2.713-8.933H302.799z"
		/>
</g>
<g opacity="0.5">
	<path fill="#EFE5C7" d="M398.732,119.115c-1.189,6.229-2.86,11.93-4.816,15.855h-0.001c-1.956-3.927-3.627-9.628-4.815-15.855
		H398.732z"/>
	<path fill="#D65727" d="M397.057,119.893c-0.67,3.508-1.611,6.722-2.713,8.933h-0.001c-1.103-2.211-2.044-5.423-2.714-8.933
		H397.057z"/>
</g>
<g opacity="0.5">
	<path fill="#EFE5C7" d="M362.215,130.619c-3.01,15.764-7.238,30.188-12.189,40.125h-0.002c-4.951-9.938-9.181-24.361-12.19-40.125
		H362.215z"/>
	<path fill="#D65727" d="M358.518,129.91c-2.098,10.984-5.043,21.035-8.492,27.953h-0.002c-3.449-6.918-6.396-16.969-8.491-27.953
		H358.518z"/>
</g>
<g>
	<path fill="#962820" d="M350.023,128.48c-8.739,0-15.824-3.108-15.824-6.943v7.539c0,3.833,7.085,6.941,15.824,6.941
		c8.738,0,15.824-3.107,15.824-6.941v-7.539C365.85,125.371,358.764,128.48,350.023,128.48z"/>
	<g>
		<g>
			<g>
				<path fill="#D43A27" d="M396.205,100.648l-29.01-21.738l-4.028,21.057c0,0,10.958-1.252,23.392,8.653
					c3.594,2.862,5.551,6.958,5.551,6.958L396.205,100.648z"/>
				<g>
					<g>
						<path fill="#D65727" d="M393.915,85.953L393.915,85.953c3.565,5.271,6.085,15.348,6.085,23.424
							c0,9.039-0.105,12.119-6.084,12.227h-0.001c-5.979-0.106-6.085-3.188-6.085-12.227
							C387.83,101.301,390.352,91.225,393.915,85.953z"/>
						<path fill="#D43A27" d="M390.783,92.489c0.895-2.539,1.955-4.798,3.132-6.536h0.001c1.175,1.738,2.234,3.998,3.132,6.536
							H390.783z"/>
						<path fill="#962820" d="M399.577,117.57c-0.606,2.838-2.081,3.971-5.661,4.033h-0.001c-3.58-0.062-5.054-1.195-5.661-4.033
							H399.577z"/>
					</g>
				</g>
			</g>
			<g>
				<path fill="#D43A27" d="M303.795,100.648l29.012-21.739l4.027,21.057c0,0-10.958-1.252-23.393,8.653
					c-3.594,2.863-5.551,6.958-5.551,6.958L303.795,100.648z"/>
				<g>
					<g>
						<path fill="#D65727" d="M306.086,85.953L306.086,85.953c-3.564,5.271-6.086,15.348-6.086,23.424
							c0,9.039,0.105,12.119,6.085,12.227h0.001c5.979-0.106,6.085-3.188,6.085-12.227
							C312.171,101.301,309.648,91.225,306.086,85.953z"/>
						<path fill="#D43A27" d="M309.218,92.489c-0.896-2.539-1.958-4.798-3.132-6.536h-0.001c-1.175,1.738-2.237,3.998-3.133,6.536
							H309.218z"/>
						<path fill="#962820" d="M300.423,117.57c0.606,2.838,2.081,3.971,5.662,4.033h0.001c3.579-0.062,5.055-1.195,5.66-4.033
							H300.423z"/>
					</g>
				</g>
			</g>
		</g>
		<path fill="#962820" d="M374.532,84.408l-7.337-5.499l-4.029,21.058c0,0,4.005-0.453,9.915,1.369
			C374.113,96.945,374.434,91.369,374.532,84.408z"/>
		<path fill="#962820" d="M325.098,84.688c0.104,6.891,0.435,12.41,1.473,16.76c6.103-1.951,10.266-1.48,10.266-1.48l-4.027-21.057
			L325.098,84.688z"/>
	</g>
	<path fill="#EFE5C7" d="M350.025,0h-0.004c-11.537,19.188-19.696,55.876-19.696,85.277c0,32.915,0.345,44.127,19.696,44.516h0.004
		c19.353-0.387,19.695-11.602,19.695-44.516C369.723,55.876,361.562,19.188,350.025,0z"/>
	<path fill="#D65727" d="M330.33,89.865c0.072,29.376,1.27,39.56,19.691,39.928h0.004c18.422-0.368,19.619-10.552,19.689-39.928
		H330.33L330.33,89.865z"/>
	<g>
		<circle fill="#962820" cx="350.023" cy="64.896" r="11.347"/>
		<circle fill="#D65727" cx="350.023" cy="64.896" r="8.56"/>
		<path fill="#EFE5C7" d="M348.811,60.286c4.363,0,7.9,3.538,7.9,7.9c0,0.131-0.004,0.262-0.01,0.392
			c0.564-1.058,0.888-2.267,0.888-3.551c0-4.169-3.381-7.549-7.55-7.549c-3.521,0-6.477,2.41-7.312,5.67
			C344.176,61.399,346.363,60.286,348.811,60.286z"/>
	</g>
	<path fill="#D65727" d="M360.162,23.793c-2.898-9.24-6.335-17.468-10.137-23.793h-0.004c-3.805,6.325-7.24,14.553-10.137,23.793
		H360.162z"/>
	<path fill="#E86A44" d="M349.775,5.662h0.004c3.254,4.037,6.306,8.853,9.099,14.21c-2.61-7.645-5.597-14.458-8.853-19.872h-0.002
		c-2.881,4.789-5.549,10.669-7.934,17.253C344.49,12.94,347.062,9.028,349.775,5.662z"/>
	<path fill="#D43A27" d="M331.698,115.111c1.964,10.334,6.733,14.449,18.325,14.682h0.002c11.59-0.232,16.359-4.348,18.324-14.682
		H331.698z"/>
</g>
<g opacity="0.5">
	<path fill="#D65727" d="M1.123,119.115c1.189,6.229,2.86,11.93,4.816,15.855l0,0c1.957-3.927,3.627-9.628,4.817-15.855H1.123z"/>
	<path fill="#EFE5C7" d="M2.236,119.893c0.875,4.58,2.104,8.775,3.543,11.662H5.78c1.44-2.887,2.668-7.082,3.544-11.662H2.236z"/>
	<path fill="#D65727" d="M0.962,111.574c1.189,6.229,2.86,11.93,4.816,15.854l0,0c1.956-3.925,3.628-9.626,4.818-15.854H0.962
		L0.962,111.574z"/>
</g>
<g opacity="0.5">
	<path fill="#D65727" d="M98.732,119.115c-1.189,6.229-2.86,11.93-4.816,15.855h-0.001c-1.956-3.927-3.627-9.628-4.817-15.855
		H98.732z"/>
	<path fill="#EFE5C7" d="M97.618,119.893c-0.892,4.674-2.146,8.953-3.615,11.898l0,0c-1.468-2.945-2.723-7.225-3.615-11.898H97.618z
		"/>
	<path fill="#D65727" d="M99.091,111.963c-1.189,6.229-2.86,11.93-4.816,15.855h-0.001c-1.956-3.926-3.627-9.627-4.816-15.855
		H99.091z"/>
</g>
<g opacity="0.5">
	<path fill="#D65727" d="M62.213,130.619c-3.009,15.764-7.239,30.188-12.189,40.125h-0.002c-4.95-9.938-9.18-24.361-12.19-40.125
		H62.213z"/>
	<path fill="#EFE5C7" d="M61.06,125.725c-2.725,14.272-6.553,27.334-11.035,36.324h-0.003c-4.483-8.99-8.311-22.052-11.035-36.324
		H61.06z"/>
</g>
<path opacity="0.5" fill="#D65727" d="M60.365,118.171c-2.52,13.202-6.06,25.284-10.206,33.599h-0.002
	c-4.146-8.313-7.687-20.396-10.207-33.599H60.365z"/>
<g>
	<path fill="#962820" d="M50.022,128.479c-8.739,0-15.824-3.106-15.824-6.941v7.539c0,3.832,7.085,6.941,15.824,6.941
		c8.739,0,15.824-3.108,15.824-6.941v-7.539C65.847,125.371,58.762,128.479,50.022,128.479z"/>
	<g>
		<g>
			<g>
				<path fill="#D43A27" d="M96.205,100.648L67.195,78.91l-4.029,21.057c0,0,10.958-1.252,23.391,8.652
					c3.593,2.863,5.551,6.958,5.551,6.958L96.205,100.648z"/>
				<g>
					<g>
						<path fill="#D65727" d="M93.915,85.953L93.915,85.953C97.48,91.225,100,101.301,100,109.376c0,9.04-0.106,12.12-6.085,12.228
							l0,0c-5.978-0.106-6.084-3.188-6.084-12.228C87.83,101.301,90.351,91.225,93.915,85.953z"/>
						<path fill="#D43A27" d="M90.783,92.488c0.895-2.539,1.957-4.797,3.131-6.535l0,0c1.175,1.738,2.237,3.997,3.133,6.535H90.783z
							"/>
						<path fill="#962820" d="M99.577,117.57c-0.607,2.838-2.081,3.97-5.662,4.033l0,0c-3.58-0.063-5.054-1.195-5.661-4.033H99.577z
							"/>
					</g>
				</g>
			</g>
			<g>
				<path fill="#D43A27" d="M3.795,100.648l29.01-21.739l4.028,21.057c0,0-10.958-1.252-23.391,8.652
					c-3.593,2.862-5.55,6.958-5.55,6.958L3.795,100.648z"/>
				<g>
					<g>
						<path fill="#D65727" d="M6.085,85.953L6.085,85.953C2.52,91.225,0,101.301,0,109.376c0,9.04,0.106,12.12,6.084,12.228h0.001
							c5.978-0.106,6.084-3.188,6.084-12.228C12.17,101.301,9.65,91.225,6.085,85.953z"/>
						<path fill="#D43A27" d="M9.217,92.488c-0.896-2.539-1.957-4.797-3.132-6.535H6.084c-1.175,1.738-2.237,3.997-3.131,6.535
							H9.217z"/>
						<path fill="#962820" d="M0.423,117.57c0.606,2.838,2.081,3.97,5.661,4.033h0.001c3.58-0.063,5.054-1.195,5.661-4.033H0.423z"
							/>
					</g>
				</g>
			</g>
		</g>
		<path fill="#962820" d="M74.531,84.408l-7.336-5.499l-4.029,21.058c0,0,4.005-0.453,9.915,1.369
			C74.112,96.945,74.434,91.369,74.531,84.408z"/>
		<path fill="#962820" d="M25.096,84.688c0.103,6.891,0.435,12.408,1.474,16.76c6.101-1.951,10.264-1.48,10.264-1.48L32.805,78.91
			L25.096,84.688z"/>
	</g>
	<path fill="#EFE5C7" d="M50.025,0h-0.003C38.484,19.188,30.325,55.876,30.325,85.276c0,32.916,0.345,44.128,19.697,44.516h0.003
		c19.352-0.386,19.696-11.601,19.696-44.516C69.721,55.876,61.563,19.188,50.025,0z"/>
	<path fill="#D65727" d="M30.33,89.865c0.072,29.376,1.269,39.559,19.692,39.927h0.003c18.424-0.368,19.62-10.551,19.692-39.927
		H30.33L30.33,89.865z"/>
	<g>
		<circle fill="#962820" cx="50.024" cy="64.896" r="11.347"/>
		<circle fill="#D65727" cx="50.023" cy="64.896" r="8.56"/>
		<path fill="#EFE5C7" d="M48.811,60.286c4.362,0,7.9,3.538,7.9,7.9c0,0.131-0.003,0.262-0.011,0.392
			c0.566-1.058,0.888-2.267,0.888-3.551c0-4.169-3.379-7.549-7.549-7.549c-3.521,0-6.478,2.41-7.313,5.669
			C44.175,61.399,46.363,60.286,48.811,60.286z"/>
	</g>
	<path fill="#D65727" d="M60.162,23.793C57.264,14.553,53.828,6.325,50.025,0h-0.003c-3.804,6.325-7.239,14.553-10.138,23.793
		H60.162z"/>
	<path fill="#E86A44" d="M49.775,5.662h0.004c3.253,4.037,6.305,8.853,9.097,14.21C56.266,12.227,53.28,5.415,50.024,0h-0.003
		c-2.88,4.789-5.548,10.669-7.932,17.253C44.49,12.939,47.061,9.028,49.775,5.662z"/>
	<path fill="#D43A27" d="M31.697,115.111c1.964,10.334,6.735,14.449,18.324,14.681h0.003c11.589-0.231,16.36-4.347,18.324-14.681
		H31.697z"/>
</g>
</svg>
