<?xml version="1.0" encoding="utf-8"?>
<!-- Generator: Adobe Illustrator 16.0.0, SVG Export Plug-In . SVG Version: 6.00 Build 0)  -->
<!DOCTYPE svg PUBLIC "-//W3C//DTD SVG 1.1//EN" "http://www.w3.org/Graphics/SVG/1.1/DTD/svg11.dtd">
<svg version="1.1" id="Layer_1" xmlns="http://www.w3.org/2000/svg" xmlns:xlink="http://www.w3.org/1999/xlink" x="0px" y="0px"
	 width="102px" height="171px" viewBox="0 0 102 171" enable-background="new 0 0 102 171" xml:space="preserve">
<g>
	<ellipse opacity="0.2" cx="51.214" cy="129.91" rx="18.611" ry="7.2"/>
	<ellipse opacity="0.2" cx="94.537" cy="120.575" rx="7.463" ry="2.887"/>
	<ellipse opacity="0.2" cx="7.463" cy="120.575" rx="7.463" ry="2.887"/>
	<path fill="#952720" d="M51.237,128c-8.707,0-15.765-3.096-15.765-6.917v7.511c0,3.819,7.058,6.916,15.765,6.916
		c8.707,0,15.766-3.097,15.766-6.916v-7.511C67.003,124.904,59.943,128,51.237,128z"/>
	<g>
		<g>
			<g>
				<path fill="#D43927" d="M97.247,100.271L68.346,78.615l-4.014,20.979c0,0,10.917-1.246,23.305,8.62
					c3.578,2.853,5.528,6.933,5.528,6.933L97.247,100.271z"/>
				<g>
					<g>
						<path fill="#D65727" d="M94.966,85.633L94.966,85.633c3.552,5.251,6.062,15.289,6.062,23.335
							c0,9.007-0.104,12.075-6.062,12.181l0,0c-5.957-0.104-6.062-3.174-6.062-12.181C88.902,100.922,91.414,90.884,94.966,85.633z"
							/>
						<path fill="#D43927" d="M91.846,92.145c0.891-2.529,1.948-4.78,3.12-6.512l0,0c1.171,1.73,2.228,3.981,3.119,6.512H91.846z"/>
						<path fill="#952720" d="M100.605,117.131c-0.604,2.827-2.073,3.954-5.641,4.018l0,0c-3.568-0.062-5.035-1.189-5.64-4.018
							H100.605z"/>
					</g>
				</g>
			</g>
			<g>
				<path fill="#D43927" d="M5.182,100.271l28.902-21.656l4.013,20.979c0,0-10.917-1.246-23.304,8.62
					c-3.58,2.853-5.53,6.933-5.53,6.933L5.182,100.271z"/>
				<g>
					<g>
						<path fill="#D65727" d="M7.464,85.633L7.464,85.633C3.912,90.884,1.4,100.922,1.4,108.968c0,9.007,0.106,12.075,6.062,12.181
							h0.001c5.956-0.104,6.062-3.174,6.062-12.181C13.526,100.922,11.015,90.884,7.464,85.633z"/>
						<path fill="#D43927" d="M10.584,92.145c-0.892-2.529-1.95-4.78-3.12-6.512H7.463c-1.17,1.73-2.229,3.981-3.121,6.512H10.584z"
							/>
						<path fill="#952720" d="M1.823,117.131c0.604,2.827,2.073,3.954,5.64,4.018h0.001c3.566-0.062,5.035-1.189,5.639-4.018H1.823z
							"/>
					</g>
				</g>
			</g>
		</g>
		<path fill="#952720" d="M75.654,84.093l-7.311-5.478l-4.013,20.979c0,0,3.989-0.451,9.877,1.364
			C75.236,96.583,75.557,91.029,75.654,84.093z"/>
		<path fill="#952720" d="M26.404,84.371c0.103,6.865,0.434,12.361,1.468,16.695c6.078-1.942,10.226-1.474,10.226-1.474
			l-4.013-20.979L26.404,84.371z"/>
	</g>
	<path fill="#EEE4C5" d="M51.239,0h-0.003C39.742,19.117,31.613,55.667,31.613,84.958c0,32.792,0.344,43.965,19.624,44.349h0.003
		c19.279-0.384,19.623-11.557,19.623-44.349C70.861,55.667,62.734,19.117,51.239,0z"/>
	<path fill="#D65727" d="M31.618,89.529c0.072,29.267,1.264,39.41,19.619,39.777h0.003c18.355-0.367,19.547-10.512,19.619-39.777
		H31.618z"/>
	<g>
		<circle fill="#952720" cx="51.238" cy="64.653" r="11.305"/>
		<circle fill="#D65727" cx="51.238" cy="64.653" r="8.528"/>
		<path fill="#EEE4C5" d="M50.03,60.061c4.346,0,7.871,3.524,7.871,7.871c0,0.13-0.004,0.261-0.012,0.39
			c0.564-1.054,0.885-2.258,0.885-3.539c0-4.153-3.366-7.521-7.52-7.521c-3.508,0-6.454,2.401-7.285,5.649
			C45.412,61.17,47.591,60.061,50.03,60.061z"/>
	</g>
	<path fill="#D65727" d="M61.339,23.705C58.451,14.499,55.027,6.301,51.239,0h-0.003c-3.79,6.301-7.212,14.499-10.1,23.705H61.339z"
		/>
	<path fill="#E76A43" d="M50.991,5.641h0.004c3.239,4.022,6.28,8.82,9.063,14.158C57.457,12.182,54.482,5.395,51.239,0h-0.003
		c-2.869,4.771-5.527,10.63-7.903,17.188C45.725,12.892,48.287,8.995,50.991,5.641z"/>
	<path fill="#D43927" d="M32.98,114.682c1.957,10.295,6.71,14.396,18.256,14.625h0.003c11.546-0.229,16.3-4.33,18.256-14.625H32.98z
		"/>
</g>
</svg>
